<svg width="30" height="30" viewBox="0 0 30 30" fill="none" xmlns="http://www.w3.org/2000/svg">
<path d="M17.6076 8.17969H12.3985C10.0749 8.17969 8.18762 10.067 8.18762 12.3906V17.5997C8.18762 19.9233 10.0749 21.8106 12.3985 21.8106H17.6076C19.9313 21.8106 21.8185 19.9233 21.8185 17.5997V12.3906C21.8185 10.067 19.9313 8.17969 17.6076 8.17969ZM20.2967 17.6051C20.2967 19.0888 19.0913 20.2997 17.6022 20.2997H12.3931C10.9094 20.2997 9.69853 19.0942 9.69853 17.6051V12.3961C9.69853 10.9124 10.904 9.70151 12.3931 9.70151H17.6022C19.0858 9.70151 20.2967 10.907 20.2967 12.3961V17.6051Z" fill="#E81212"/>
<path d="M15.0006 11.5125C13.0806 11.5125 11.5151 13.078 11.5151 14.998C11.5151 16.918 13.0806 18.4834 15.0006 18.4834C16.9206 18.4834 18.486 16.918 18.486 14.998C18.486 13.078 16.9206 11.5125 15.0006 11.5125V11.5125ZM15.0006 17.1143C13.8333 17.1143 12.8842 16.1652 12.8842 14.998C12.8842 13.8307 13.8333 12.8816 15.0006 12.8816C16.1679 12.8816 17.117 13.8307 17.117 14.998C17.117 16.1652 16.1679 17.1143 15.0006 17.1143Z" fill="#E81212"/>
<path d="M18.7512 11.8921C19.0723 11.84 19.2904 11.5375 19.2384 11.2164C19.1863 10.8952 18.8838 10.6771 18.5627 10.7292C18.2416 10.7812 18.0235 11.0838 18.0755 11.4049C18.1276 11.726 18.4301 11.9441 18.7512 11.8921Z" fill="#E81212"/>
</svg>
