<svg width="30" height="30" viewBox="0 0 30 30" fill="none" xmlns="http://www.w3.org/2000/svg">
<path d="M22.6551 18.337C22.6551 18.2795 22.593 18.2795 22.593 18.2219C22.3448 17.7616 21.7861 17.1863 21.0413 16.5534C20.6689 16.2658 20.4827 16.0356 20.3586 15.9205C20.1724 15.6904 20.1724 15.5178 20.2344 15.2877C20.2965 15.1151 20.5448 14.8274 20.9792 14.3096C21.2275 14.0219 21.3517 13.8493 21.5379 13.6767C22.4689 12.526 22.9034 11.7781 22.7792 11.4329L22.7172 11.3753C22.6551 11.3178 22.593 11.2603 22.4689 11.2603C22.3448 11.2027 22.1586 11.2027 21.9724 11.2603H19.6138C19.5517 11.2603 19.5517 11.2603 19.4275 11.2603C19.3655 11.2603 19.3034 11.2603 19.3034 11.2603H19.2413H19.1793L19.1172 11.3178C19.0551 11.3753 19.0551 11.3753 19.0551 11.4329C18.8068 12.0657 18.4965 12.5836 18.1862 13.1589C18 13.4466 17.8138 13.7342 17.6275 13.9644C17.4413 14.1945 17.3172 14.3671 17.1931 14.4822C17.0689 14.5973 16.9448 14.6548 16.8827 14.7699C16.8206 14.8274 16.6965 14.8849 16.6965 14.8274C16.6344 14.8274 16.5724 14.8274 16.5724 14.7699C16.5103 14.7123 16.4482 14.6548 16.3862 14.5973C16.3241 14.5397 16.3241 14.4247 16.262 14.3096C16.262 14.1945 16.262 14.0794 16.262 14.0219C16.262 13.9644 16.262 13.7918 16.262 13.6767C16.262 13.5041 16.262 13.389 16.262 13.3315C16.262 13.1589 16.262 12.9288 16.262 12.6986C16.262 12.4685 16.262 12.2959 16.262 12.1808C16.262 12.0657 16.262 11.8931 16.262 11.7781C16.262 11.6055 16.262 11.4904 16.262 11.4329C16.262 11.3753 16.2 11.2603 16.2 11.2027C16.1379 11.1452 16.0758 11.0877 16.0138 11.0301C15.9517 10.9726 15.8276 10.9726 15.7655 10.9151C15.4551 10.8575 15.0827 10.8 14.6483 10.8C13.6552 10.8 12.9724 10.8575 12.7241 10.9726C12.6 11.0301 12.4759 11.0877 12.4138 11.2027C12.2896 11.3178 12.2896 11.3753 12.3517 11.3753C12.6621 11.4329 12.9103 11.5479 13.0345 11.7205L13.0965 11.8356C13.1586 11.8932 13.1586 12.0082 13.2207 12.1808C13.2827 12.3534 13.2827 12.526 13.2827 12.7562C13.2827 13.1014 13.2827 13.4466 13.2827 13.6767C13.2827 13.9644 13.2207 14.137 13.2207 14.3096C13.2207 14.4822 13.1586 14.5973 13.0965 14.6548C13.0345 14.7699 13.0345 14.8274 12.9724 14.8274C12.9724 14.8274 12.9724 14.8849 12.9103 14.8849C12.8483 14.8849 12.7862 14.9425 12.6621 14.9425C12.6 14.9425 12.4759 14.8849 12.4138 14.8274C12.2896 14.7699 12.1655 14.6548 12.1034 14.5397C11.9793 14.4247 11.8552 14.2521 11.731 14.0219C11.6069 13.7918 11.4207 13.5616 11.2965 13.2164L11.1724 12.9863C11.1103 12.8712 10.9862 12.6411 10.8621 12.3534C10.7379 12.0658 10.6138 11.8356 10.4897 11.5479C10.4276 11.4329 10.3655 11.3753 10.3035 11.3178H10.2414C10.2414 11.3178 10.1793 11.2603 10.1172 11.2603C10.0552 11.2603 9.99311 11.2027 9.93104 11.2027H7.69656C7.44829 11.2027 7.32415 11.2603 7.26208 11.3178L7.20001 11.3753C7.20001 11.3753 7.20001 11.4329 7.20001 11.4904C7.20001 11.5479 7.20002 11.6055 7.26208 11.7205C7.57243 12.411 7.94484 13.1014 8.31725 13.7918C8.68966 14.4247 9.06208 15 9.31035 15.4027C9.6207 15.8055 9.86897 16.2082 10.1793 16.5534C10.4897 16.8986 10.6759 17.1288 10.7379 17.2438C10.8621 17.3589 10.9241 17.4164 10.9862 17.474L11.1724 17.6466C11.2965 17.7616 11.4828 17.9342 11.731 18.1069C11.9793 18.2795 12.2896 18.4521 12.6 18.6247C12.9103 18.7973 13.2827 18.9123 13.6552 19.0274C14.0896 19.1425 14.462 19.2 14.8345 19.1425H15.7655C15.9517 19.1425 16.0758 19.0849 16.2 18.9699L16.262 18.9123C16.262 18.8548 16.3241 18.8548 16.3241 18.7973C16.3241 18.7397 16.3241 18.6822 16.3241 18.5671C16.3241 18.337 16.3241 18.1644 16.3862 17.9918C16.4482 17.8192 16.4483 17.7041 16.5103 17.589C16.5724 17.474 16.6344 17.4164 16.6965 17.3589C16.7586 17.3014 16.8207 17.2438 16.8207 17.2438H16.8827C17.0069 17.1863 17.1931 17.2438 17.3172 17.3589C17.5034 17.474 17.6896 17.6466 17.8137 17.8192C17.9379 17.9918 18.1241 18.1644 18.3724 18.3945C18.6207 18.6247 18.8069 18.7973 18.931 18.8548L19.1172 18.9699C19.2413 19.0274 19.3655 19.0849 19.5517 19.1425C19.7379 19.2 19.862 19.2 19.9861 19.2L22.0965 19.1425C22.2827 19.1425 22.4689 19.0849 22.593 19.0274C22.7172 18.9699 22.7792 18.9123 22.7792 18.7973C22.7792 18.7397 22.7792 18.6247 22.7792 18.5671C22.6551 18.4521 22.6551 18.3945 22.6551 18.337Z" fill="#E81212"/>
</svg>
