<svg width="30" height="30" viewBox="0 0 30 30" fill="none" xmlns="http://www.w3.org/2000/svg">
<path d="M22.2 14.1151C22.2 13.8061 22.1474 13.4455 22.1474 13.0333C22.0949 12.6212 22.0423 12.2091 21.9898 11.8485C21.8847 11.4364 21.727 11.1273 21.4117 10.8697C21.1489 10.6121 20.781 10.4576 20.4131 10.4061C19.2044 10.2515 17.4175 10.2 15 10.2C12.5825 10.2 10.7431 10.2515 9.58685 10.4061C9.21896 10.4576 8.85108 10.6121 8.58831 10.8697C8.32554 11.1273 8.11531 11.4364 8.0102 11.8485C7.90509 12.2091 7.85255 12.5697 7.85255 13.0333C7.79999 13.4455 7.79999 13.8061 7.79999 14.1151C7.79999 14.4242 7.79999 14.7848 7.79999 15.3C7.79999 15.8151 7.79999 16.2273 7.79999 16.4848C7.79999 16.7939 7.85255 17.1545 7.85255 17.5667C7.9051 17.9788 7.95765 18.3909 8.0102 18.7515C8.11531 19.1636 8.27298 19.4727 8.58831 19.7303C8.85108 19.9879 9.21896 20.1424 9.58685 20.1939C10.7956 20.3485 12.5825 20.4 15 20.4C17.4175 20.4 19.2569 20.3485 20.4131 20.1939C20.781 20.1424 21.1489 19.9879 21.4117 19.7303C21.6744 19.4727 21.8847 19.1636 21.9898 18.7515C22.0949 18.3909 22.1474 18.0303 22.1474 17.5667C22.2 17.1545 22.2 16.7939 22.2 16.4848C22.2 16.1758 22.2 15.8151 22.2 15.3C22.2 14.7848 22.2 14.3727 22.2 14.1151ZM17.7854 15.7121L13.6336 18.2364C13.581 18.2879 13.4759 18.3394 13.3708 18.3394C13.2657 18.3394 13.2131 18.3394 13.108 18.2879C12.9504 18.1848 12.8452 18.0303 12.8452 17.8242V12.7242C12.8452 12.5182 12.9504 12.3636 13.108 12.2606C13.2657 12.1576 13.4759 12.1576 13.6336 12.2606L17.7854 14.7848C17.9431 14.8879 18.0482 15.0424 18.0482 15.197C18.0482 15.3515 17.9431 15.6091 17.7854 15.7121Z" fill="#E81212"/>
</svg>
