<svg width="23" height="23" viewBox="0 0 23 23" fill="white" xmlns="http://www.w3.org/2000/svg">
<path d="M9.61035 0.665094C8.89258 0.938532 8.43848 1.87115 8.63867 2.6524C8.78028 3.21392 9.08301 3.56549 9.64453 3.82428C10.2793 4.11724 10.5869 4.0733 10.6504 3.68756C10.6895 3.44342 10.5479 3.28228 10.1426 3.13092C9.57617 2.91119 9.32227 2.50591 9.44922 2.02252C9.64453 1.29498 10.5723 1.16802 11.1338 1.79302C11.3682 2.05181 11.5 2.3399 11.5 2.61334C11.5 2.73053 11.3877 3.40924 11.251 4.11236L11.002 5.40142L10.8213 5.294C9.07325 4.25885 7.66211 3.99517 7.01758 4.58599C6.86133 4.7276 6.76367 4.92291 6.66602 5.29889C6.62207 5.47467 5.2793 9.00982 3.69239 13.1602C1.78321 18.1358 0.791995 20.7872 0.772464 20.9532C0.71387 21.5147 1.06543 22.1104 1.59278 22.3399C1.80274 22.4278 1.91504 22.4424 2.21778 22.4278C2.56934 22.4083 2.98438 22.252 10.1816 19.4981C14.3564 17.8965 17.8916 16.5635 18.0283 16.5294C19.1465 16.2706 19.2539 15.0889 18.3359 13.17C18.1748 12.8428 17.9258 12.3838 17.7793 12.1592L17.5107 11.7491L17.7402 11.7051C17.8672 11.6758 18.4629 11.5635 19.0586 11.4463C20.2793 11.212 20.4063 11.2169 20.8018 11.4903C21.5342 11.9981 21.5977 12.9063 20.9238 13.2432C20.6699 13.3751 20.4551 13.3848 20.2012 13.2823C19.9375 13.17 19.8203 13.0381 19.6738 12.6768C19.4932 12.2471 19.3906 12.1348 19.166 12.1348C18.9463 12.1348 18.79 12.2422 18.751 12.4229C18.6875 12.711 19.1221 13.5899 19.4492 13.8292C19.8203 14.1026 20.001 14.1612 20.4844 14.1612C20.8848 14.1612 20.9873 14.1417 21.2266 14.0294C22.1836 13.585 22.4961 12.5938 21.9981 11.5977C21.6465 10.8995 20.9043 10.4258 20.1572 10.4258C19.9912 10.4258 17.335 10.9092 17.0615 10.9922C17.0127 11.0069 16.876 10.8751 16.6465 10.587C15.4551 9.0733 13.5801 7.24713 12.1494 6.20221C11.8906 6.01178 11.7539 5.88482 11.7686 5.83599C11.7783 5.79693 11.9102 5.11334 12.0615 4.32232C12.291 3.14068 12.335 2.81353 12.3203 2.49127C12.2813 1.64654 11.7344 0.95318 10.875 0.665094C10.4795 0.533258 9.95703 0.533258 9.61035 0.665094ZM8.77051 5.25006C9.41992 5.4649 10.8164 6.20221 10.8164 6.32916C10.8164 6.35357 10.7383 6.78326 10.6406 7.27642C10.4893 8.03814 10.4697 8.19928 10.5186 8.32135C10.626 8.57525 10.9824 8.65338 11.1777 8.45806C11.2656 8.37017 11.3145 8.19439 11.4268 7.60357C11.5049 7.1983 11.583 6.86138 11.6025 6.86138C11.6758 6.86138 12.7305 7.73053 13.4189 8.36041C14.1318 9.0147 15.0156 9.93756 15.6699 10.7188L16.0557 11.1827L15.2402 11.3389C14.7178 11.4366 14.3857 11.5245 14.3272 11.5782C14.1953 11.6954 14.2002 12.0518 14.332 12.1837C14.4639 12.3155 14.6055 12.3106 15.626 12.1104C16.1094 12.0176 16.5293 11.9395 16.5586 11.9395C16.6465 11.9395 17.2959 12.9649 17.5889 13.5557C18.0234 14.4395 18.2188 15.1573 18.0967 15.4649C17.916 15.9336 17.1836 15.8458 15.8701 15.1915C13.1162 13.8243 9.33203 10.0254 7.98438 7.27642C7.6084 6.50494 7.48145 6.13385 7.47657 5.73346C7.47168 5.46978 7.49121 5.38678 7.56934 5.29889C7.78418 5.05963 8.15528 5.0401 8.77051 5.25006ZM7.90137 8.82428C8.12598 9.18072 8.5166 9.81549 8.76563 10.2305C10.3477 12.8526 11.915 15.045 13.5947 16.9786L13.7949 17.2032L13.2236 17.4278L12.6475 17.6573L12.3643 17.3497C10.6797 15.5381 8.58008 12.5547 6.6709 9.25885L6.31934 8.65338L6.62207 7.83795L6.92969 7.02252L7.21289 7.60357C7.36426 7.92095 7.67676 8.46783 7.90137 8.82428ZM6.37305 10.4258C7.87207 12.9893 9.7666 15.6797 11.3096 17.4376L11.7881 17.9795L11.2266 18.1895C10.7432 18.3702 10.6553 18.3897 10.6016 18.3311C10.3525 18.0674 9.42481 16.9151 8.94141 16.2706C7.98926 14.9961 6.29004 12.418 5.60157 11.2022L5.44532 10.9239L5.67481 10.3135C5.85059 9.85455 5.92383 9.71295 5.96289 9.75689C5.99219 9.79107 6.17774 10.0889 6.37305 10.4258ZM5.4795 12.6329C6.71973 14.669 8.44825 17.1251 9.50782 18.3555C9.66895 18.5411 9.78125 18.7071 9.75684 18.7315C9.73731 18.751 9.49317 18.8536 9.21485 18.961L8.7168 19.1563L8.20899 18.5118C7.06641 17.0665 5.40625 14.6446 4.70313 13.4044L4.57617 13.1846L4.80567 12.5889C4.92774 12.2569 5.04493 11.9883 5.05957 11.9883C5.07422 11.9883 5.26465 12.2813 5.4795 12.6329ZM12.9893 14.3126C13.7363 14.9034 14.8887 15.6553 15.543 15.9727C15.8701 16.129 16.1338 16.2706 16.1338 16.2852C16.1387 16.2999 15.8018 16.4415 15.3965 16.5977L14.6494 16.8809L14.4395 16.6417C13.5361 15.6309 12.8135 14.7325 12.1348 13.795L11.7246 13.2335L12.1152 13.5801C12.3252 13.7706 12.7207 14.0977 12.9893 14.3126ZM4.49805 14.6836C5.37696 16.0801 6.55371 17.7696 7.40821 18.8633C7.64258 19.1661 7.83789 19.4297 7.83789 19.4542C7.83789 19.4737 7.60352 19.5811 7.31543 19.6885L6.79297 19.8838L6.61719 19.6592C5.75782 18.5704 3.73633 15.6114 3.73633 15.4405C3.73633 15.4063 3.81934 15.1573 3.92188 14.8887C4.02442 14.6251 4.12696 14.3663 4.1416 14.3174C4.16114 14.2735 4.18067 14.2344 4.19043 14.2344C4.20508 14.2344 4.3418 14.4395 4.49805 14.6836ZM3.54102 16.7588C3.80469 17.1934 4.86426 18.7266 5.40625 19.4542C5.67481 19.8106 5.89942 20.128 5.91407 20.1622C5.9336 20.211 5.06446 20.5821 4.92285 20.5821C4.8545 20.5821 4.25391 19.7618 3.42383 18.5411L2.85254 17.7012L3.08203 17.0909C3.20899 16.754 3.32617 16.4805 3.34571 16.4805C3.36035 16.4805 3.44825 16.6075 3.54102 16.7588ZM2.8086 19.1417C2.95508 19.3565 3.28711 19.835 3.55078 20.2012C3.81446 20.5723 4.0293 20.8897 4.0293 20.9092C4.0293 20.9727 2.27149 21.6221 2.12012 21.6172C1.86621 21.6124 1.58789 21.3292 1.58789 21.085C1.58789 21.0069 1.70508 20.6797 2.30567 19.127C2.39844 18.878 2.4961 18.6876 2.51563 18.712C2.53516 18.7315 2.667 18.9268 2.8086 19.1417Z" fill="white"/>
<path d="M12.8379 8.66309C12.6719 8.73633 12.5254 8.96094 12.5254 9.13672C12.5254 9.24902 12.5742 9.35156 12.6768 9.47363C12.8086 9.62012 12.8574 9.64453 13.0479 9.64453C13.502 9.64453 13.7217 9.15137 13.4189 8.81445C13.2725 8.65332 13.0186 8.58984 12.8379 8.66309Z" fill="white"/>
<path d="M13.79 1.58303C13.6094 1.76857 13.6094 1.86135 13.8145 2.26174C14.0537 2.74025 14.1367 3.09181 14.1709 3.78517C14.2002 4.41506 14.1416 5.12306 14.0098 5.77248C13.9316 6.14357 13.9561 6.27541 14.1318 6.40724C14.2637 6.50978 14.5469 6.48537 14.6592 6.35842C14.8399 6.16799 15.0156 5.02541 15.0156 4.07814C15.0156 2.33498 14.3662 1.01174 13.79 1.58303Z" fill="white"/>
<path d="M16.3779 2.21785C16.2656 2.33015 16.2363 2.40339 16.2363 2.56453C16.2363 2.81843 16.2998 2.93562 16.4805 3.02839C16.9346 3.26277 17.418 2.81843 17.1934 2.3741C17.0273 2.0616 16.6172 1.97859 16.3779 2.21785Z" fill="white"/>
<path d="M17.3594 4.80566C16.8857 4.96191 16.5049 5.32324 16.3291 5.78223C16.0752 6.46094 16.417 7.26172 17.1055 7.60352C17.2861 7.69141 17.4131 7.71582 17.7256 7.71582C18.209 7.71582 18.502 7.5791 18.8389 7.20312C19.127 6.88574 19.2344 6.56836 19.2051 6.13379C19.1514 5.37207 18.5801 4.81055 17.8281 4.78125C17.6377 4.77148 17.4277 4.78125 17.3594 4.80566ZM18.0332 5.68945C18.4043 5.91406 18.4873 6.37793 18.2139 6.66602C17.9258 6.96875 17.5742 6.97852 17.2861 6.69043C16.9736 6.37305 17.0225 5.95801 17.4033 5.7041C17.6084 5.56738 17.8232 5.5625 18.0332 5.68945Z" fill="white"/>
<path d="M20.6504 8.66797C20.4941 8.73145 20.3379 8.95605 20.3379 9.11719C20.3379 9.42969 20.5527 9.63965 20.8652 9.64453C21.4121 9.64453 21.5586 8.94629 21.0703 8.69238C20.9141 8.60938 20.8018 8.60449 20.6504 8.66797Z" fill="white"/>
</svg>
