<svg width="24" height="23" viewBox="0 0 24 23" fill="none" xmlns="http://www.w3.org/2000/svg">
<path d="M4.66406 0.784472C4.10156 1.13603 3.61406 1.43135 3.58125 1.44541C3.54844 1.45478 3.03281 1.25322 2.43281 0.99541C1.83281 0.73291 1.29844 0.521972 1.2375 0.521972C0.99375 0.521972 0.998438 0.587597 1.32656 1.88603L1.63125 3.10947L0.815625 4.03291C0.182813 4.74541 0 4.97978 0 5.08291C0 5.17197 0.0328125 5.22354 0.107813 5.25166C0.164062 5.2751 0.740625 5.33135 1.38281 5.37354C2.15156 5.42041 2.57344 5.46729 2.60625 5.50479C2.63438 5.5376 2.91563 6.00166 3.23438 6.54541C3.79688 7.50635 3.89531 7.64697 4.0125 7.64697C4.13438 7.64697 4.21875 7.48291 4.64062 6.41885C4.87969 5.81885 5.09063 5.30791 5.10938 5.28916C5.12813 5.27041 5.65313 5.13916 6.28594 4.99854C6.91406 4.85322 7.46719 4.72666 7.50938 4.7126C7.60313 4.68447 7.65469 4.55322 7.61719 4.4501C7.59844 4.40791 7.16719 4.02354 6.65156 3.59697C5.85469 2.93135 5.71875 2.8001 5.71875 2.6876C5.71875 2.61728 5.76094 2.12979 5.8125 1.6001C5.92969 0.37666 5.92969 0.259472 5.81719 0.193847C5.76562 0.17041 5.71406 0.146972 5.70469 0.146972C5.69531 0.146972 5.22656 0.43291 4.66406 0.784472Z" fill="url(#paint0_linear_14_1724)"/>
<path d="M13.4297 0.400065C13.3453 0.461003 13.3453 0.493815 13.4016 1.11257C13.4531 1.661 13.4531 1.76882 13.3969 1.80632C13.3594 1.83444 13.1484 2.01257 12.9281 2.20007C12.2953 2.73444 12.3234 2.81882 13.1906 3.00632C13.5188 3.07663 13.7953 3.14225 13.8047 3.15163C13.8141 3.161 13.9172 3.41413 14.0391 3.70944C14.1609 4.00475 14.2828 4.27663 14.3109 4.30944C14.3391 4.34225 14.4141 4.36569 14.4797 4.35632C14.5781 4.34694 14.6531 4.24382 14.9063 3.81725C15.075 3.52663 15.225 3.27819 15.2391 3.26882C15.2531 3.25475 15.5391 3.21725 15.8719 3.18913C16.2047 3.161 16.5047 3.11882 16.5375 3.09069C16.6688 2.97819 16.5938 2.81882 16.1859 2.36882L15.7781 1.91882L15.8906 1.44069C15.9516 1.18288 16.0031 0.873503 16.0078 0.756315C16.0078 0.564128 15.9984 0.545378 15.8813 0.531315C15.8109 0.52194 15.5344 0.611003 15.2156 0.751628L14.6719 0.99069L14.1422 0.662565C13.8469 0.479753 13.5891 0.33444 13.5656 0.33444C13.5375 0.33444 13.4766 0.362565 13.4297 0.400065Z" fill="url(#paint1_linear_14_1724)"/>
<path d="M11.3953 4.52971C11.2125 5.12502 11.0484 5.87971 10.9359 6.66252C10.7813 7.74065 10.8469 11.5281 11.025 11.875C11.0719 11.9688 11.2734 11.9875 11.325 11.9031C11.3438 11.875 11.4094 11.4578 11.4656 10.9844C11.7281 8.8844 12.2063 6.97659 12.8203 5.58909L13.0313 5.11565L12.8906 4.83909C12.8109 4.68909 12.75 4.54377 12.75 4.51096C12.75 4.48284 12.6938 4.45002 12.6234 4.43127C12.225 4.34221 12.0938 4.30002 11.8641 4.17346C11.7234 4.09846 11.5922 4.03752 11.5781 4.03752C11.5594 4.03752 11.4797 4.25784 11.3953 4.52971Z" fill="url(#paint2_linear_14_1724)"/>
<path d="M20.5828 5.43916C20.1797 6.23604 20.1563 6.27822 20.0063 6.30166C19.9219 6.32041 19.5469 6.37666 19.1719 6.42822C18.2625 6.55947 18.2859 6.5501 18.2531 6.69072C18.225 6.79854 18.2953 6.88291 18.8906 7.48291L19.5563 8.15322L19.4109 9.02979C19.3313 9.5126 19.275 9.94854 19.2891 9.99541C19.3453 10.1642 19.5703 10.0985 20.3531 9.67666L21.1172 9.27354L21.9 9.67666C22.3313 9.90166 22.7391 10.0845 22.8047 10.0845C23.0063 10.0845 23.0109 9.95322 22.8469 9.01104L22.6969 8.13916L23.3484 7.50635C23.8875 6.98604 24.0047 6.8501 24 6.74229C24 6.56416 23.9344 6.54541 22.95 6.40478C22.4859 6.33916 22.1016 6.27822 22.0922 6.27354C22.0875 6.26416 21.9188 5.92197 21.7219 5.50947C21.3234 4.68447 21.2672 4.6001 21.1125 4.6001C21.0141 4.6001 20.9438 4.7126 20.5828 5.43916Z" fill="url(#paint3_linear_14_1724)"/>
<path d="M6.99375 6.38147C6.57188 6.47991 6.22031 6.56897 6.21094 6.57835C6.1875 6.60178 5.57812 8.12991 5.57812 8.16741C5.57812 8.18616 5.68594 8.36428 5.82188 8.56585C5.95312 8.77209 6.23438 9.27835 6.44531 9.69085C7.45313 11.669 8.32031 14.4393 9.075 18.0487C9.27188 19.0143 9.70312 21.4705 9.77344 22.0565C9.81563 22.3846 9.93281 22.5393 10.0781 22.4596C10.1672 22.4127 10.1719 22.3565 10.1719 21.0393C10.1719 17.0502 9.73594 13.0705 8.925 9.70959C8.55 8.15335 7.94063 6.2221 7.82344 6.20803C7.78594 6.20803 7.41563 6.28303 6.99375 6.38147Z" fill="url(#paint4_linear_14_1724)"/>
<path d="M16.6172 8.45795C15.9562 9.08139 15.4031 9.69545 14.9672 10.2861C13.2609 12.5876 12.1453 15.4329 11.6766 18.6861C11.5125 19.8298 11.4797 20.247 11.4516 21.5736L11.4234 22.872L11.5406 22.947C11.6297 23.0079 11.6906 23.0126 11.7797 22.9798C11.9203 22.9236 11.9016 22.9658 12.1172 22.0376C13.2516 17.1251 15.1781 13.3892 17.6953 11.2564L18.0844 10.9236L17.9391 10.6376C17.7469 10.2673 17.7234 9.84545 17.8547 9.14701L17.9484 8.65482L17.7281 8.42982C17.6062 8.30326 17.4328 8.1392 17.3391 8.06889L17.1703 7.93295L16.6172 8.45795Z" fill="url(#paint5_linear_14_1724)"/>
<path d="M2.94843 13.136L2.50312 13.6095L1.89375 13.5157C1.56093 13.4688 1.26093 13.436 1.22812 13.4501C1.19531 13.4595 1.14843 13.511 1.12031 13.5626C1.07812 13.6376 1.125 13.7548 1.37812 14.2142L1.6875 14.7767L1.44375 15.2548C1.1625 15.8126 1.12031 15.9485 1.18125 16.0517C1.2375 16.1548 1.36875 16.1501 2.00625 16.0329L2.54062 15.9345L2.70937 16.0938C2.80312 16.1782 3.02343 16.3845 3.19687 16.5438C3.36562 16.7032 3.525 16.8345 3.54843 16.8345C3.70312 16.8345 3.75468 16.6985 3.83437 16.0845L3.91406 15.4517L4.41093 15.1938C5.00625 14.8845 5.0625 14.8423 5.0625 14.6923C5.0625 14.5938 4.99218 14.547 4.48125 14.3032C4.11562 14.1298 3.89062 13.9985 3.87656 13.9423C3.8625 13.8954 3.81562 13.6376 3.77343 13.3657C3.68906 12.8454 3.61406 12.6626 3.47812 12.6626C3.43593 12.6626 3.19687 12.8735 2.94843 13.136Z" fill="url(#paint6_linear_14_1724)"/>
<path d="M6.04686 15.9393C5.92968 16.0565 5.71874 16.2158 5.57343 16.2908L5.31561 16.4268L5.25936 16.7971L5.19843 17.1674L5.52186 17.5752C6.45936 18.7518 7.29374 20.2002 8.04843 21.9674C8.21249 22.3518 8.37186 22.694 8.39999 22.7315C8.4703 22.8159 8.71874 22.783 8.78436 22.6846C8.8453 22.5862 8.74686 21.9721 8.50311 20.9362C8.17968 19.5534 7.76249 18.3627 7.21405 17.2565C6.86718 16.558 6.35155 15.7002 6.28593 15.719C6.27186 15.719 6.16405 15.8221 6.04686 15.9393Z" fill="url(#paint7_linear_14_1724)"/>
<path d="M21.3469 16.694L20.9766 17.2049L20.2969 17.219L19.6172 17.233L19.6031 17.3643C19.5891 17.4674 19.6641 17.6034 19.9453 17.9877L20.3016 18.4846L20.1094 19.0377C19.7906 19.9284 19.8469 19.9893 20.7047 19.708L21.3 19.5065L21.7875 19.8815C22.2937 20.2705 22.4578 20.3315 22.5469 20.1674C22.5703 20.1159 22.5937 19.8018 22.5937 19.4737V18.869L23.0672 18.5455C23.5594 18.208 23.6953 18.0721 23.6437 17.9455C23.6109 17.8565 23.5969 17.8518 22.9219 17.6315L22.3875 17.458L22.2141 16.8909C21.9375 15.9721 21.8766 15.958 21.3469 16.694Z" fill="url(#paint8_linear_14_1724)"/>
<path d="M17.3531 17.7907C15.4078 18.4798 14.0812 19.5579 13.3219 21.0767C13.0781 21.5642 12.8906 22.0938 12.8906 22.3001C12.8906 22.5063 13.0266 22.647 13.2328 22.647C13.4062 22.647 13.4859 22.5767 13.8375 22.1079C14.1562 21.686 14.7937 21.0063 15.1641 20.6923C16.0734 19.9235 16.9078 19.4876 17.9719 19.2251L18.4875 19.0985L18.5484 18.911C18.6094 18.7282 18.6094 18.7235 18.4031 18.4095C18.2859 18.2407 18.1641 18.0063 18.1359 17.8985C18.1078 17.7907 18.075 17.6735 18.0656 17.6407C18.0422 17.5563 17.9859 17.5704 17.3531 17.7907Z" fill="url(#paint9_linear_14_1724)"/>
<defs>
<linearGradient id="paint0_linear_14_1724" x1="2.84221e-08" y1="3.89697" x2="7.62951" y2="3.89697" gradientUnits="userSpaceOnUse">
<stop stop-color="#E81212"/>
<stop offset="1" stop-color="#FCCD05"/>
</linearGradient>
<linearGradient id="paint1_linear_14_1724" x1="12.4916" y1="2.34642" x2="16.5966" y2="2.34642" gradientUnits="userSpaceOnUse">
<stop stop-color="#E81212"/>
<stop offset="1" stop-color="#FCCD05"/>
</linearGradient>
<linearGradient id="paint2_linear_14_1724" x1="10.8491" y1="7.99728" x2="13.0313" y2="7.99728" gradientUnits="userSpaceOnUse">
<stop stop-color="#E81212"/>
<stop offset="1" stop-color="#FCCD05"/>
</linearGradient>
<linearGradient id="paint3_linear_14_1724" x1="18.248" y1="7.34228" x2="24.0001" y2="7.34228" gradientUnits="userSpaceOnUse">
<stop stop-color="#E81212"/>
<stop offset="1" stop-color="#FCCD05"/>
</linearGradient>
<linearGradient id="paint4_linear_14_1724" x1="5.57813" y1="14.3441" x2="10.1719" y2="14.3441" gradientUnits="userSpaceOnUse">
<stop stop-color="#E81212"/>
<stop offset="1" stop-color="#FCCD05"/>
</linearGradient>
<linearGradient id="paint5_linear_14_1724" x1="11.4234" y1="15.4665" x2="18.0844" y2="15.4665" gradientUnits="userSpaceOnUse">
<stop stop-color="#E81212"/>
<stop offset="1" stop-color="#FCCD05"/>
</linearGradient>
<linearGradient id="paint6_linear_14_1724" x1="1.1066" y1="14.7485" x2="5.0625" y2="14.7485" gradientUnits="userSpaceOnUse">
<stop stop-color="#E81212"/>
<stop offset="1" stop-color="#FCCD05"/>
</linearGradient>
<linearGradient id="paint7_linear_14_1724" x1="5.19843" y1="19.2492" x2="8.80194" y2="19.2492" gradientUnits="userSpaceOnUse">
<stop stop-color="#E81212"/>
<stop offset="1" stop-color="#FCCD05"/>
</linearGradient>
<linearGradient id="paint8_linear_14_1724" x1="19.6015" y1="18.211" x2="23.654" y2="18.211" gradientUnits="userSpaceOnUse">
<stop stop-color="#E81212"/>
<stop offset="1" stop-color="#FCCD05"/>
</linearGradient>
<linearGradient id="paint9_linear_14_1724" x1="12.8906" y1="20.1199" x2="18.5838" y2="20.1199" gradientUnits="userSpaceOnUse">
<stop stop-color="#E81212"/>
<stop offset="1" stop-color="#FCCD05"/>
</linearGradient>
</defs>
</svg>
