<svg width="24" height="22" viewBox="0 0 24 22" fill="none" xmlns="http://www.w3.org/2000/svg">
<path d="M10.8075 0.606186C10.32 0.784311 10.2403 0.85931 5.25282 5.84681C-0.423747 11.5327 0.00750268 11.0359 0.00750268 11.8796C0.00750268 12.7234 -0.315935 12.3343 4.12782 16.7874C7.22625 19.8952 8.07 20.7156 8.28094 20.8281C8.77313 21.0906 9.37313 21.0999 9.9075 20.8562C10.1513 20.7484 10.7044 20.2093 15.1763 15.7327C19.6153 11.289 20.1919 10.6984 20.3091 10.4499L20.445 10.1687L20.4591 6.05775C20.4684 1.989 20.4684 1.94681 20.37 1.689C20.1825 1.18275 19.7794 0.793686 19.2638 0.624935C19.0153 0.54056 18.7856 0.535873 14.9888 0.54056C11.8059 0.54056 10.9434 0.554623 10.8075 0.606186ZM16.0716 4.19212C16.5591 4.37494 16.9059 4.86712 16.9059 5.38743C16.9059 6.25462 16.0294 6.88275 15.2044 6.6015C14.9231 6.50775 14.6138 6.23118 14.4684 5.94525C14.3044 5.62181 14.3044 5.15306 14.4684 4.82962C14.7778 4.22494 15.4481 3.95775 16.0716 4.19212Z" fill="url(#paint0_linear_14_1826)"/>
<path d="M22.1934 6.54527L22.1794 10.825L22.0669 11.0828C21.9685 11.3125 21.3872 11.9078 16.9669 16.3375L11.9747 21.3343L12.2044 21.5312C12.6122 21.8921 13.0106 22.0281 13.545 21.9953C14.2481 21.9484 13.8825 22.2718 19.0481 17.1156C23.2669 12.9015 23.7122 12.4468 23.8294 12.189L23.9606 11.9031V7.7312V3.55933L23.8294 3.30152C23.5341 2.72026 23.0653 2.39214 22.4044 2.29839L22.2028 2.27026L22.1934 6.54527Z" fill="url(#paint1_linear_14_1826)"/>
<defs>
<linearGradient id="paint0_linear_14_1826" x1="7.62305e-08" y1="10.7858" x2="20.463" y2="10.7858" gradientUnits="userSpaceOnUse">
<stop stop-color="#E81212"/>
<stop offset="1" stop-color="#FCCD05"/>
</linearGradient>
<linearGradient id="paint1_linear_14_1826" x1="11.9747" y1="12.1351" x2="23.9606" y2="12.1351" gradientUnits="userSpaceOnUse">
<stop stop-color="#E81212"/>
<stop offset="1" stop-color="#FCCD05"/>
</linearGradient>
</defs>
</svg>
