<svg width="24" height="24" viewBox="0 0 24 24" fill="none" xmlns="http://www.w3.org/2000/svg">
<path d="M5.94375 2.52188C2.67188 3.74531 0 4.76719 0 4.78125C0 4.81875 11.9016 9.28125 12 9.28125C12.0938 9.28125 16.5 7.63125 16.5 7.59844C16.5 7.57969 15.5016 7.15781 14.2828 6.65625L12.0656 5.74219L13.5375 5.11875L15.0094 4.49531L17.2172 5.48906C18.4359 6.03281 19.4531 6.48281 19.4813 6.48281C19.5656 6.4875 24 4.81406 24 4.78125C24 4.73438 12.0844 0.281251 11.9766 0.285938C11.925 0.285938 9.21094 1.29375 5.94375 2.52188Z" fill="url(#paint0_linear_14_1845)"/>
<path d="M0 13.0453V19.8094L5.59219 21.9047C8.6625 23.0578 11.1938 24 11.2172 24C11.2359 24 11.25 20.9578 11.25 17.2359V10.4719L5.6625 8.37656C2.5875 7.22344 0.05625 6.28125 0.0375 6.28125C0.0140625 6.28125 0 9.32344 0 13.0453ZM4.53281 17.7047L6 18.2578V19.0266C6 19.6172 5.98594 19.7859 5.94375 19.7719C5.91094 19.7578 5.23594 19.5094 4.44375 19.2141L3 18.6797V17.9156C3 17.4984 3.01406 17.1562 3.03281 17.1562C3.04688 17.1562 3.72188 17.4047 4.53281 17.7047Z" fill="url(#paint1_linear_14_1845)"/>
<path d="M21.6938 7.11563L19.5 7.94063V9.81563V11.6953L18.0328 12.2484C17.2219 12.5484 16.5469 12.7969 16.5328 12.7969C16.5141 12.7969 16.5 11.9625 16.5 10.9453C16.5 9.92813 16.4859 9.09375 16.4672 9.09375C16.4438 9.09375 15.6 9.40313 14.5922 9.78281L12.75 10.4719V17.2359C12.75 20.9578 12.7641 24 12.7875 24C12.8063 24 15.3375 23.0578 18.4125 21.9047L24 19.8094V13.0453C24 7.66406 23.9859 6.28125 23.9438 6.28594C23.9109 6.28594 22.8984 6.66094 21.6938 7.11563Z" fill="url(#paint2_linear_14_1845)"/>
<defs>
<linearGradient id="paint0_linear_14_1845" x1="8.9407e-08" y1="4.78359" x2="24" y2="4.78359" gradientUnits="userSpaceOnUse">
<stop stop-color="#E81212"/>
<stop offset="1" stop-color="#FCCD05"/>
</linearGradient>
<linearGradient id="paint1_linear_14_1845" x1="4.19095e-08" y1="15.1406" x2="11.25" y2="15.1406" gradientUnits="userSpaceOnUse">
<stop stop-color="#E81212"/>
<stop offset="1" stop-color="#FCCD05"/>
</linearGradient>
<linearGradient id="paint2_linear_14_1845" x1="12.75" y1="15.143" x2="24" y2="15.143" gradientUnits="userSpaceOnUse">
<stop stop-color="#E81212"/>
<stop offset="1" stop-color="#FCCD05"/>
</linearGradient>
</defs>
</svg>
