<svg width="24" height="18" viewBox="0 0 24 18" fill="none" xmlns="http://www.w3.org/2000/svg">
<path d="M2.62435 0.198233C2.10026 0.348623 1.75846 0.558259 1.31185 1.00032C0.951823 1.35578 0.865234 1.46972 0.6875 1.84342C0.573568 2.08039 0.46875 2.3356 0.455078 2.41308L0.427734 2.5498L6.17448 6.33235C9.33724 8.41047 11.9577 10.1149 11.9987 10.1103C12.0397 10.1103 14.6602 8.41047 17.8275 6.33235L23.5833 2.55891L23.556 2.41763C23.5378 2.34016 23.4329 2.08039 23.319 1.84342C23.1413 1.46972 23.0547 1.35578 22.6947 1.00032C22.3802 0.685863 22.1979 0.549144 21.9382 0.42154C21.2591 0.0888577 22.0521 0.111644 11.9805 0.116201C3.39453 0.116201 2.89779 0.120759 2.62435 0.198233Z" fill="#E81212"/>
<path d="M0.336578 9.60093C0.336578 14.9011 0.341136 15.1426 0.427724 15.4662C0.473297 15.6485 0.532542 15.8216 0.555328 15.8444C0.578115 15.8672 2.15494 14.6322 4.5703 12.6862C7.75129 10.125 8.53059 9.47332 8.48502 9.42775C8.4121 9.36395 0.391266 4.07749 0.359365 4.07749C0.345693 4.07749 0.336578 6.56577 0.336578 9.60093Z" fill="#E81212"/>
<path d="M19.5592 6.75651C17.3125 8.22852 15.4713 9.44531 15.4713 9.45898C15.4668 9.5 23.36 15.8574 23.4147 15.8574C23.4375 15.8574 23.5013 15.7435 23.5514 15.6068C23.6471 15.3607 23.6471 15.2969 23.6608 10.6621C23.6654 8.07812 23.6654 5.54427 23.6608 5.02474L23.6471 4.08138L19.5592 6.75651Z" fill="#E81212"/>
<path d="M5.5091 13.6062C3.20311 15.4656 1.31183 16.9969 1.30728 17.0151C1.28905 17.0698 1.84504 17.4754 2.12759 17.6075C2.7565 17.9038 2.05467 17.8855 12.0124 17.8855C21.013 17.8855 21.054 17.8855 21.3913 17.7898C21.5781 17.7397 21.847 17.6349 21.9883 17.562C22.248 17.4207 22.7083 17.047 22.6673 17.006C22.6491 16.9923 14.4915 10.4207 14.3047 10.2703C14.2728 10.2475 13.9355 10.448 13.4616 10.7625C13.0241 11.0541 12.5729 11.3321 12.4635 11.3823C12.222 11.4871 11.7708 11.4962 11.5384 11.4005C11.4518 11.364 11.0052 11.086 10.554 10.7807C10.0983 10.4799 9.72004 10.2293 9.71548 10.2293C9.70637 10.2293 7.81509 11.7514 5.5091 13.6062Z" fill="#E81212"/>
</svg>
