<svg width="60" height="60" viewBox="0 0 60 60" fill="none" xmlns="http://www.w3.org/2000/svg">
<g clip-path="url(#clip0_2601_45536)">
<circle cx="30.2498" cy="30" r="30" fill="white"/>
<path d="M14.4382 25.4768C14.6018 26.4589 13.71 35.9522 13.2099 35.9522C12.7098 35.9522 11.8626 26.2952 11.9823 25.4768C12.14 24.3985 12.8007 23.2672 13.2099 23.2672C13.6191 23.2672 14.2643 24.4328 14.4382 25.4768Z" fill="#E81212"/>
<path d="M14.4382 53.8749C14.6018 52.8928 13.71 43.3995 13.2099 43.3995C12.7098 43.3995 11.8626 53.0565 11.9823 53.8749C12.14 54.9532 12.8007 56.0845 13.2099 56.0845C13.6191 56.0845 14.2643 54.9189 14.4382 53.8749Z" fill="#E81212"/>
<path d="M7.17476 26.7672C7.80748 27.5359 11.7817 36.2033 11.3487 36.4533C10.9156 36.7034 5.35337 28.7638 5.04786 27.9952C4.6453 26.9825 4.65178 25.6724 5.00615 25.4678C5.36053 25.2632 6.50213 25.9501 7.17476 26.7672Z" fill="#E81212"/>
<path d="M21.3738 51.3607C21.0245 50.4284 15.5054 42.6529 15.0723 42.9029C14.6393 43.153 18.734 51.9397 19.2469 52.5886C19.9226 53.4436 21.0605 54.093 21.4148 53.8884C21.7692 53.6839 21.7452 52.3518 21.3738 51.3607Z" fill="#E81212"/>
<path d="M1.52963 31.5165C2.46192 31.8658 10.2374 37.3849 9.98738 37.8179C9.73734 38.251 0.950543 34.1563 0.30166 33.6434C-0.553313 32.9677 -1.20276 31.8298 -0.998159 31.4754C-0.793562 31.1211 0.538526 31.1451 1.52963 31.5165Z" fill="#E81212"/>
<path d="M26.123 45.7155C25.3544 45.0828 16.687 41.1085 16.4369 41.5416C16.1869 41.9747 24.1265 47.5369 24.8951 47.8424C25.9078 48.245 27.2179 48.2385 27.4225 47.8841C27.6271 47.5297 26.9402 46.3881 26.123 45.7155Z" fill="#E81212"/>
<path d="M-0.984567 38.4521C-0.00250149 38.2884 9.4908 39.1803 9.4908 39.6804C9.4908 40.1805 -0.166179 41.0277 -0.984567 40.908C-2.06286 40.7503 -3.19421 40.0896 -3.19421 39.6804C-3.19421 39.2712 -2.02857 38.626 -0.984567 38.4521Z" fill="#E81212"/>
<path d="M27.4135 38.4521C26.4314 38.2884 16.9381 39.1803 16.9381 39.6804C16.9381 40.1805 26.5951 41.0277 27.4135 40.908C28.4918 40.7503 29.6232 40.0896 29.6232 39.6804C29.6232 39.2712 28.4575 38.626 27.4135 38.4521Z" fill="#E81212"/>
<path d="M0.30582 45.7155C1.07451 45.0828 9.74188 41.1085 9.99193 41.5416C10.242 41.9747 2.30239 47.5369 1.53379 47.8424C0.521096 48.245 -0.789019 48.2385 -0.993616 47.8841C-1.19821 47.5297 -0.511354 46.3881 0.30582 45.7155Z" fill="#E81212"/>
<path d="M24.8993 31.5165C23.967 31.8658 16.1915 37.3849 16.4415 37.818C16.6915 38.251 25.4783 34.1563 26.1272 33.6434C26.9822 32.9677 27.6316 31.8298 27.427 31.4754C27.2224 31.1211 25.8904 31.1451 24.8993 31.5165Z" fill="#E81212"/>
<path d="M5.05508 51.3607C5.40442 50.4284 10.9235 42.6529 11.3565 42.9029C11.7896 43.153 7.69485 51.9398 7.18197 52.5886C6.50624 53.4436 5.36841 54.0931 5.01403 53.8885C4.65966 53.6839 4.6837 52.3518 5.05508 51.3607Z" fill="#E81212"/>
<path d="M19.2541 26.7672C18.6214 27.5359 14.6471 36.2033 15.0802 36.4533C15.5133 36.7034 21.0755 28.7638 21.381 27.9952C21.7836 26.9825 21.7771 25.6724 21.4227 25.4678C21.0684 25.2632 19.9267 25.9501 19.2541 26.7672Z" fill="#E81212"/>
<path d="M19.7126 19.3038C19.5542 20.3457 16.3195 29.9609 15.9751 29.8686C15.6307 29.7763 17.7129 19.6717 18.0213 18.8507C18.4276 17.7689 19.1948 16.7254 19.4766 16.8009C19.7584 16.8764 19.881 18.1962 19.7126 19.3038Z" fill="#FCCD05"/>
<path d="M8.44453 18.8522C8.82828 19.8337 10.8346 29.778 10.4902 29.8703C10.1458 29.9626 6.89668 20.1706 6.75323 19.3054C6.5642 18.1654 6.70688 16.8781 6.98868 16.8025C7.27047 16.727 8.03657 17.8088 8.44453 18.8522Z" fill="#FCCD05"/>
<path d="M19.7126 60.087C19.5542 59.0451 16.3195 49.43 15.9751 49.5222C15.6308 49.6145 17.713 59.7192 18.0213 60.5402C18.4276 61.6219 19.1948 62.6655 19.4766 62.59C19.7584 62.5145 19.881 61.1946 19.7126 60.087Z" fill="#FCCD05"/>
<path d="M8.44455 60.5386C8.8283 59.5571 10.8346 49.6128 10.4902 49.5206C10.1458 49.4283 6.8967 59.2203 6.75324 60.0855C6.56421 61.2254 6.7069 62.5128 6.98869 62.5883C7.27049 62.6638 8.03659 61.5821 8.44455 60.5386Z" fill="#FCCD05"/>
<path d="M-1.18546 23.8905C-0.36237 24.5487 6.34727 32.1576 6.09516 32.4097C5.84305 32.6618 -1.86676 25.8062 -2.42358 25.1287C-3.15725 24.236 -3.67738 23.0497 -3.47109 22.8434C-3.26481 22.6371 -2.06047 23.1909 -1.18546 23.8905Z" fill="#FCCD05"/>
<path d="M-7.21065 33.4231C-6.16876 33.5816 3.4464 36.8162 3.35412 37.1606C3.26184 37.505 -6.84284 35.4228 -7.66383 35.1144C-8.74556 34.7082 -9.78913 33.9409 -9.71363 33.6591C-9.63812 33.3773 -8.31825 33.2547 -7.21065 33.4231Z" fill="#FCCD05"/>
<path d="M34.1338 44.2821C33.1523 43.8983 23.208 41.8921 23.1157 42.2365C23.0234 42.5808 32.8154 45.8299 33.6806 45.9734C34.8205 46.1624 36.1079 46.0197 36.1834 45.7379C36.2589 45.4561 35.1772 44.69 34.1338 44.2821Z" fill="#FCCD05"/>
<path d="M28.8909 54.2664C28.2327 53.4433 20.6238 46.7336 20.3717 46.9857C20.1196 47.2379 26.9752 54.9477 27.6527 55.5045C28.5454 56.2382 29.7317 56.7583 29.938 56.552C30.1443 56.3457 29.5905 55.1414 28.8909 54.2664Z" fill="#FCCD05"/>
<path d="M-7.66229 44.2821C-6.68078 43.8983 3.26352 41.8921 3.3558 42.2365C3.44808 42.5808 -6.34393 45.8299 -7.2091 45.9734C-8.34904 46.1624 -9.63643 46.0197 -9.71194 45.7379C-9.78745 45.4561 -8.7057 44.69 -7.66229 44.2821Z" fill="#FCCD05"/>
<path d="M-2.41937 54.2664C-1.76124 53.4433 5.84764 46.7336 6.09976 46.9858C6.35187 47.2379 -0.503717 54.9477 -1.18125 55.5045C-2.07394 56.2382 -3.26021 56.7583 -3.4665 56.552C-3.67279 56.3457 -3.11901 55.1414 -2.41937 54.2664Z" fill="#FCCD05"/>
<path d="M27.657 23.8905C26.8339 24.5486 20.1242 32.1575 20.3763 32.4096C20.6284 32.6617 28.3383 25.8062 28.8951 25.1286C29.6288 24.2359 30.1489 23.0497 29.9426 22.8434C29.7363 22.6371 28.532 23.1909 27.657 23.8905Z" fill="#FCCD05"/>
<path d="M33.6821 33.4231C32.6403 33.5815 23.0251 36.8162 23.1174 37.1606C23.2097 37.505 33.3143 35.4228 34.1353 35.1144C35.2171 34.7082 36.2606 33.9409 36.1851 33.6591C36.1096 33.3773 34.7897 33.2547 33.6821 33.4231Z" fill="#FCCD05"/>
<path d="M-3.21914 58.8983C-2.61243 58.1656 4.20496 52.0352 4.39755 52.2278C4.59015 52.4204 -1.66909 59.3322 -2.27329 59.8442C-3.06937 60.5188 -4.09534 61.0358 -4.25293 60.8782C-4.41052 60.7207 -3.86411 59.6773 -3.21914 58.8983Z" fill="#E81212"/>
<path d="M1.97254 62.6294C2.36892 61.7646 7.36735 54.0786 7.60323 54.2148C7.83911 54.351 3.58206 62.6473 3.13095 63.2982C2.5366 64.1559 1.67943 64.9208 1.48642 64.8094C1.29341 64.698 1.55114 63.5487 1.97254 62.6294Z" fill="#E81212"/>
<path d="M29.9817 20.5135C29.375 21.2462 22.5576 27.3766 22.365 27.184C22.1724 26.9914 28.4317 20.0796 29.0359 19.5676C29.8319 18.893 30.8579 18.3759 31.0155 18.5335C31.1731 18.6911 30.6267 19.7345 29.9817 20.5135Z" fill="#E81212"/>
<path d="M24.79 16.7824C24.3936 17.6472 19.3952 25.3332 19.1593 25.197C18.9235 25.0608 23.1805 16.7645 23.6316 16.1136C24.226 15.2559 25.0831 14.4909 25.2762 14.6024C25.4692 14.7138 25.2114 15.8631 24.79 16.7824Z" fill="#E81212"/>
<path d="M8.60112 64.6272C8.76018 63.6893 11.599 54.9715 11.8621 55.042C12.1252 55.1125 10.1604 64.2279 9.89316 64.9734C9.54104 65.9557 8.91107 66.9165 8.69579 66.8588C8.48052 66.8011 8.43202 65.6243 8.60112 64.6272Z" fill="#E81212"/>
<path d="M14.9628 65.2626C14.8737 64.3155 15.3594 55.16 15.6318 55.16C15.9042 55.16 16.3656 64.4733 16.3004 65.2626C16.2145 66.3025 15.8547 67.3936 15.6318 67.3936C15.4089 67.3936 15.0575 66.2694 14.9628 65.2626Z" fill="#E81212"/>
<path d="M18.1615 14.7845C18.0024 15.7225 15.1636 24.4403 14.9005 24.3698C14.6374 24.2993 16.6021 15.1838 16.8694 14.4383C17.2215 13.4561 17.8515 12.4953 18.0668 12.553C18.2821 12.6107 18.3306 13.7875 18.1615 14.7845Z" fill="#E81212"/>
<path d="M11.7998 14.1492C11.8889 15.0963 11.4031 24.2518 11.1307 24.2518C10.8584 24.2518 10.3969 14.9385 10.4621 14.1492C10.548 13.1093 10.9079 12.0182 11.1307 12.0182C11.3536 12.0182 11.705 13.1423 11.7998 14.1492Z" fill="#E81212"/>
<path d="M21.7022 63.6785C21.371 62.7867 19.4706 53.8175 19.7337 53.747C19.9968 53.6765 22.853 62.553 22.9943 63.3323C23.1805 64.359 23.1153 65.5061 22.9 65.5637C22.6847 65.6214 22.0543 64.6265 21.7022 63.6785Z" fill="#E81212"/>
<path d="M27.5292 61.0479C26.9785 60.2722 22.8214 52.1004 23.0573 51.9643C23.2932 51.8281 28.3495 59.6629 28.6876 60.3791C29.1332 61.3226 29.3671 62.4475 29.1741 62.5589C28.9811 62.6703 28.1147 61.8725 27.5292 61.0479Z" fill="#E81212"/>
<path d="M5.06036 15.7333C5.39157 16.6251 7.29197 25.5943 7.02888 25.6648C6.76579 25.7353 3.9096 16.8587 3.76831 16.0795C3.58213 15.0528 3.64731 13.9057 3.86259 13.848C4.07786 13.7903 4.70827 14.7853 5.06036 15.7333Z" fill="#E81212"/>
<path d="M-0.766657 18.3639C-0.215926 19.1395 3.94114 27.3113 3.70526 27.4475C3.46937 27.5837 -1.58691 19.7488 -1.92508 19.0327C-2.37065 18.0891 -2.60457 16.9643 -2.41156 16.8529C-2.21855 16.7414 -1.35212 17.5393 -0.766657 18.3639Z" fill="#E81212"/>
<path d="M32.5737 56.3063C31.841 55.6996 25.7106 48.8822 25.9032 48.6896C26.0958 48.497 33.0076 54.7563 33.5196 55.3605C34.1942 56.1566 34.7112 57.1825 34.5536 57.3401C34.396 57.4977 33.3526 56.9513 32.5737 56.3063Z" fill="#E81212"/>
<path d="M36.3048 51.1147C35.44 50.7183 27.754 45.7198 27.8902 45.484C28.0264 45.2481 36.3227 49.5051 36.9736 49.9562C37.8313 50.5506 38.5963 51.4078 38.4849 51.6008C38.3734 51.7938 37.2242 51.536 36.3048 51.1147Z" fill="#E81212"/>
<path d="M-5.81112 23.1055C-5.0784 23.7122 1.05203 30.5296 0.859432 30.7222C0.666835 30.9147 -6.24498 24.6555 -6.75697 24.0513C-7.43156 23.2552 -7.94864 22.2293 -7.79105 22.0717C-7.63346 21.9141 -6.59006 22.4605 -5.81112 23.1055Z" fill="#E81212"/>
<path d="M38.3027 44.4861C37.3647 44.327 28.6469 41.4882 28.7174 41.2251C28.7879 40.962 37.9034 42.9268 38.6489 43.194C39.6311 43.5461 40.5919 44.1761 40.5342 44.3914C40.4765 44.6067 39.2997 44.6552 38.3027 44.4861Z" fill="#E81212"/>
<path d="M38.938 38.1244C37.9909 38.2135 28.8354 37.7277 28.8354 37.4554C28.8354 37.183 38.1488 36.7215 38.938 36.7868C39.978 36.8727 41.0691 37.2325 41.0691 37.4554C41.0691 37.6782 39.9449 38.0297 38.938 38.1244Z" fill="#E81212"/>
<path d="M37.3539 31.385C36.4621 31.7162 27.4929 33.6166 27.4224 33.3535C27.3519 33.0904 36.2284 30.2342 37.0077 30.0929C38.0344 29.9067 39.1815 29.9719 39.2391 30.1872C39.2968 30.4025 38.3019 31.0329 37.3539 31.385Z" fill="#E81212"/>
<path d="M34.7233 25.5579C33.9476 26.1086 25.7758 30.2657 25.6397 30.0298C25.5035 29.7939 33.3383 24.7377 34.0545 24.3995C34.998 23.9539 36.1229 23.72 36.2343 23.913C36.3457 24.106 35.5479 24.9725 34.7233 25.5579Z" fill="#E81212"/>
<path d="M-7.96072 53.8539C-7.18505 53.3031 0.986716 49.1461 1.1229 49.3819C1.25909 49.6178 -6.57578 54.6741 -7.29191 55.0123C-8.23546 55.4579 -9.36029 55.6918 -9.47173 55.4988C-9.58316 55.3058 -8.78532 54.4393 -7.96072 53.8539Z" fill="#E81212"/>
<path d="M50.9839 2.3374C51.0841 2.9391 50.5377 8.75553 50.2313 8.75553C49.9249 8.75553 49.4058 2.83882 49.4792 2.3374C49.5758 1.67674 49.9806 0.983578 50.2313 0.983578C50.482 0.983578 50.8773 1.69775 50.9839 2.3374Z" fill="#E81212"/>
<path d="M50.9839 19.7365C51.0841 19.1348 50.5377 13.3184 50.2313 13.3184C49.9249 13.3184 49.4058 19.2351 49.4792 19.7365C49.5758 20.3972 49.9806 21.0904 50.2313 21.0904C50.482 21.0904 50.8773 20.3762 50.9839 19.7365Z" fill="#E81212"/>
<path d="M46.5337 3.12801C46.9213 3.59898 49.3563 8.90937 49.091 9.06257C48.8256 9.21576 45.4177 4.35128 45.2305 3.88037C44.9839 3.25991 44.9879 2.45721 45.205 2.33186C45.4221 2.20651 46.1215 2.62734 46.5337 3.12801Z" fill="#E81212"/>
<path d="M55.2332 18.1961C55.0192 17.6249 51.6377 12.8609 51.3724 13.0141C51.107 13.1673 53.6159 18.5509 53.9301 18.9485C54.3441 19.4723 55.0412 19.8702 55.2584 19.7449C55.4755 19.6195 55.4607 18.8033 55.2332 18.1961Z" fill="#E81212"/>
<path d="M43.0749 6.03783C43.6461 6.25187 48.4101 9.63331 48.2569 9.89866C48.1037 10.164 42.7201 7.65519 42.3226 7.34095C41.7987 6.92694 41.4008 6.2298 41.5262 6.01268C41.6515 5.79556 42.4677 5.81029 43.0749 6.03783Z" fill="#E81212"/>
<path d="M58.143 14.7374C57.6721 14.3497 52.3617 11.9148 52.2085 12.1801C52.0553 12.4454 56.9197 15.8533 57.3907 16.0405C58.0111 16.2872 58.8138 16.2832 58.9392 16.0661C59.0645 15.849 58.6437 15.1495 58.143 14.7374Z" fill="#E81212"/>
<path d="M41.5345 10.2872C42.1362 10.1869 47.9526 10.7334 47.9526 11.0398C47.9526 11.3461 42.0359 11.8652 41.5345 11.7919C40.8739 11.6952 40.1807 11.2905 40.1807 11.0398C40.1807 10.789 40.8949 10.3937 41.5345 10.2872Z" fill="#E81212"/>
<path d="M58.9337 10.2872C58.332 10.1869 52.5155 10.7334 52.5155 11.0398C52.5155 11.3462 58.4322 11.8652 58.9337 11.7919C59.5943 11.6953 60.2875 11.2905 60.2875 11.0398C60.2875 10.789 59.5733 10.3937 58.9337 10.2872Z" fill="#E81212"/>
<path d="M42.3251 14.7374C42.7961 14.3497 48.1065 11.9147 48.2597 12.1801C48.4129 12.4454 43.5484 15.8533 43.0775 16.0405C42.457 16.2872 41.6543 16.2832 41.529 16.0661C41.4036 15.8489 41.8244 15.1495 42.3251 14.7374Z" fill="#E81212"/>
<path d="M57.3932 6.03782C56.822 6.25186 52.058 9.6333 52.2112 9.89865C52.3644 10.164 57.748 7.65518 58.1455 7.34094C58.6694 6.92693 59.0673 6.22979 58.9419 6.01267C58.8166 5.79555 58.0004 5.81028 57.3932 6.03782Z" fill="#E81212"/>
<path d="M45.235 18.1961C45.449 17.6249 48.8304 12.861 49.0958 13.0142C49.3611 13.1673 46.8523 18.5509 46.5381 18.9485C46.1241 19.4723 45.4269 19.8702 45.2098 19.7449C44.9927 19.6195 45.0074 18.8033 45.235 18.1961Z" fill="#E81212"/>
<path d="M53.9345 3.12801C53.5469 3.59898 51.1119 8.90937 51.3772 9.06257C51.6426 9.21577 55.0505 4.35128 55.2377 3.88037C55.4843 3.25991 55.4803 2.45722 55.2632 2.33186C55.0461 2.20651 54.3467 2.62734 53.9345 3.12801Z" fill="#E81212"/>
<path d="M54.2155 -1.44471C54.1184 -0.806363 52.1366 5.08473 51.9256 5.02819C51.7146 4.97165 52.9903 -1.21936 53.1792 -1.72237C53.4281 -2.38513 53.8982 -3.02452 54.0709 -2.97826C54.2435 -2.932 54.3186 -2.12333 54.2155 -1.44471Z" fill="#FCCD05"/>
<path d="M47.3116 -1.72143C47.5468 -1.12007 48.776 4.97268 48.565 5.02922C48.354 5.08576 46.3633 -0.913689 46.2754 -1.44377C46.1596 -2.14219 46.247 -2.93097 46.4197 -2.97723C46.5923 -3.02349 47.0617 -2.36072 47.3116 -1.72143Z" fill="#FCCD05"/>
<path d="M54.2155 23.5426C54.1184 22.9043 52.1366 17.0132 51.9256 17.0697C51.7146 17.1263 52.9903 23.3173 53.1792 23.8203C53.4281 24.483 53.8982 25.1224 54.0709 25.0762C54.2435 25.0299 54.3186 24.2212 54.2155 23.5426Z" fill="#FCCD05"/>
<path d="M47.3117 23.8193C47.5468 23.218 48.776 17.1252 48.565 17.0687C48.354 17.0122 46.3633 23.0116 46.2754 23.5417C46.1596 24.2401 46.247 25.0289 46.4197 25.0751C46.5923 25.1214 47.0617 24.4586 47.3117 23.8193Z" fill="#FCCD05"/>
<path d="M41.4114 1.36551C41.9157 1.76874 46.0267 6.43061 45.8722 6.58507C45.7177 6.73954 40.994 2.53921 40.6529 2.12409C40.2034 1.57715 39.8847 0.850337 40.0111 0.723947C40.1375 0.597556 40.8753 0.936845 41.4114 1.36551Z" fill="#FCCD05"/>
<path d="M37.7199 7.20602C38.3582 7.30308 44.2493 9.28492 44.1928 9.49592C44.1363 9.70692 37.9452 8.43118 37.4422 8.24226C36.7795 7.99335 36.1401 7.52325 36.1863 7.3506C36.2326 7.17795 37.0413 7.10284 37.7199 7.20602Z" fill="#FCCD05"/>
<path d="M63.0511 13.8592C62.4498 13.624 56.357 12.3948 56.3005 12.6058C56.2439 12.8168 62.2434 14.8075 62.7735 14.8954C63.4719 15.0112 64.2607 14.9238 64.3069 14.7511C64.3532 14.5785 63.6904 14.1091 63.0511 13.8592Z" fill="#FCCD05"/>
<path d="M59.8388 19.9764C59.4356 19.4721 54.7737 15.3612 54.6193 15.5157C54.4648 15.6701 58.6651 20.3938 59.0803 20.735C59.6272 21.1845 60.354 21.5032 60.4804 21.3768C60.6068 21.2504 60.2675 20.5125 59.8388 19.9764Z" fill="#FCCD05"/>
<path d="M37.4432 13.8591C38.0445 13.624 44.1373 12.3948 44.1938 12.6058C44.2504 12.8168 38.2509 14.8075 37.7208 14.8954C37.0224 15.0112 36.2336 14.9238 36.1874 14.7511C36.1411 14.5785 36.8039 14.1091 37.4432 13.8591Z" fill="#FCCD05"/>
<path d="M40.6554 19.9764C41.0587 19.4721 45.7205 15.3612 45.875 15.5157C46.0295 15.6701 41.8291 20.3938 41.414 20.735C40.8671 21.1845 40.1403 21.5032 40.0139 21.3768C39.8875 21.2504 40.2268 20.5125 40.6554 19.9764Z" fill="#FCCD05"/>
<path d="M59.0828 1.36549C58.5786 1.76872 54.4676 6.43059 54.6221 6.58505C54.7766 6.73952 59.5003 2.53918 59.8414 2.12407C60.2909 1.57713 60.6096 0.850316 60.4832 0.723926C60.3568 0.597535 59.619 0.936824 59.0828 1.36549Z" fill="#FCCD05"/>
<path d="M62.7744 7.20601C62.1361 7.30307 56.245 9.28491 56.3015 9.49591C56.358 9.70691 62.5491 8.43117 63.0521 8.24225C63.7148 7.99334 64.3542 7.52324 64.3079 7.35059C64.2617 7.17793 63.453 7.10283 62.7744 7.20601Z" fill="#FCCD05"/>
<path d="M40.1654 22.8143C40.5371 22.3654 44.714 18.6094 44.8321 18.7274C44.9501 18.8454 41.1151 23.0802 40.7449 23.3938C40.2572 23.8072 39.6286 24.124 39.532 24.0274C39.4355 23.9309 39.7702 23.2916 40.1654 22.8143Z" fill="#E81212"/>
<path d="M43.3463 25.1003C43.5891 24.5705 46.6516 19.8614 46.7961 19.9448C46.9407 20.0282 44.3324 25.1113 44.056 25.5101C43.6919 26.0356 43.1667 26.5043 43.0484 26.436C42.9302 26.3677 43.0881 25.6636 43.3463 25.1003Z" fill="#E81212"/>
<path d="M60.5072 -0.703592C60.1354 -0.254661 55.9585 3.50138 55.8405 3.38337C55.7225 3.26537 59.5575 -0.969412 59.9276 -1.2831C60.4154 -1.69642 61.044 -2.01322 61.1405 -1.91667C61.2371 -1.82012 60.9023 -1.18084 60.5072 -0.703592Z" fill="#E81212"/>
<path d="M57.3263 -2.98958C57.0834 -2.45973 54.021 2.24939 53.8764 2.16595C53.7319 2.08251 56.3402 -3.00054 56.6165 -3.39935C56.9807 -3.92482 57.5059 -4.39353 57.6241 -4.32525C57.7424 -4.25698 57.5845 -3.55284 57.3263 -2.98958Z" fill="#E81212"/>
<path d="M47.4076 26.3244C47.505 25.7497 49.2443 20.4084 49.4055 20.4516C49.5667 20.4948 48.3629 26.0797 48.1992 26.5365C47.9834 27.1383 47.5975 27.727 47.4656 27.6916C47.3337 27.6563 47.304 26.9353 47.4076 26.3244Z" fill="#E81212"/>
<path d="M51.3053 26.7136C51.2507 26.1334 51.5483 20.5239 51.7152 20.5239C51.8821 20.5239 52.1648 26.2301 52.1248 26.7136C52.0722 27.3508 51.8517 28.0193 51.7152 28.0193C51.5786 28.0193 51.3633 27.3305 51.3053 26.7136Z" fill="#E81212"/>
<path d="M53.265 -4.21365C53.1676 -3.639 51.4283 1.70229 51.2671 1.6591C51.1059 1.61591 52.3097 -3.96901 52.4734 -4.42576C52.6892 -5.02758 53.0751 -5.61624 53.207 -5.5809C53.3389 -5.54556 53.3687 -4.82454 53.265 -4.21365Z" fill="#E81212"/>
<path d="M49.3673 -4.60292C49.4219 -4.02263 49.1243 1.58682 48.9574 1.58682C48.7905 1.58682 48.5078 -4.11935 48.5478 -4.60292C48.6004 -5.24007 48.8209 -5.90857 48.9574 -5.90857C49.094 -5.90857 49.3093 -5.21981 49.3673 -4.60292Z" fill="#E81212"/>
<path d="M55.4344 25.7431C55.2315 25.1967 54.0672 19.7013 54.2284 19.6582C54.3896 19.615 56.1395 25.0535 56.2261 25.531C56.3401 26.16 56.3002 26.8628 56.1683 26.8982C56.0364 26.9335 55.6502 26.3239 55.4344 25.7431Z" fill="#E81212"/>
<path d="M59.0046 24.1313C58.6672 23.6561 56.1202 18.6494 56.2647 18.5659C56.4092 18.4825 59.5072 23.2828 59.7143 23.7216C59.9873 24.2997 60.1307 24.9888 60.0124 25.0571C59.8942 25.1254 59.3633 24.6366 59.0046 24.1313Z" fill="#E81212"/>
<path d="M45.2382 -3.63237C45.4411 -3.08598 46.6055 2.40937 46.4443 2.45256C46.2831 2.49575 44.5331 -2.94282 44.4466 -3.42025C44.3325 -4.04931 44.3724 -4.7521 44.5043 -4.78744C44.6362 -4.82278 45.0225 -4.21322 45.2382 -3.63237Z" fill="#E81212"/>
<path d="M41.668 -2.02063C42.0054 -1.54539 44.5524 3.46135 44.4079 3.54479C44.2634 3.62823 41.1655 -1.1721 40.9583 -1.61086C40.6853 -2.18896 40.542 -2.87813 40.6602 -2.94641C40.7785 -3.01468 41.3093 -2.52585 41.668 -2.02063Z" fill="#E81212"/>
<path d="M62.0952 21.2262C61.6463 20.8545 57.8903 16.6776 58.0083 16.5596C58.1263 16.4416 62.3611 20.2765 62.6747 20.6467C63.0881 21.1345 63.4049 21.7631 63.3083 21.8596C63.2118 21.9562 62.5725 21.6214 62.0952 21.2262Z" fill="#E81212"/>
<path d="M64.3813 18.0454C63.8514 17.8025 59.1423 14.74 59.2257 14.5955C59.3092 14.451 64.3922 17.0592 64.791 17.3356C65.3165 17.6998 65.7852 18.2249 65.7169 18.3432C65.6487 18.4615 64.9445 18.3035 64.3813 18.0454Z" fill="#E81212"/>
<path d="M38.5773 0.88449C39.0263 1.25621 42.7823 5.43314 42.6643 5.55115C42.5463 5.66915 38.3115 1.83419 37.9978 1.464C37.5845 0.97625 37.2677 0.347655 37.3643 0.251101C37.4608 0.154546 38.1001 0.489324 38.5773 0.88449Z" fill="#E81212"/>
<path d="M36.2914 4.06537C36.8212 4.30823 41.5303 7.3707 41.4469 7.51523C41.3634 7.65975 36.2804 5.0515 35.8816 4.77512C35.3561 4.41096 34.8874 3.88578 34.9557 3.76753C35.024 3.64927 35.7281 3.80719 36.2914 4.06537Z" fill="#E81212"/>
<path d="M65.6054 13.9841C65.0307 13.8867 59.6894 12.1474 59.7326 11.9862C59.7758 11.825 65.3607 13.0288 65.8175 13.1925C66.4193 13.4082 67.0079 13.7942 66.9726 13.9261C66.9373 14.058 66.2162 14.0877 65.6054 13.9841Z" fill="#E81212"/>
<path d="M65.9946 10.0864C65.4144 10.141 59.8049 9.84338 59.8049 9.6765C59.8049 9.50962 65.5111 9.2269 65.9946 9.26686C66.6318 9.31949 67.3003 9.53995 67.3003 9.6765C67.3003 9.81305 66.6115 10.0284 65.9946 10.0864Z" fill="#E81212"/>
<path d="M35.0673 8.12661C35.642 8.22406 40.9833 9.96337 40.9401 10.1246C40.8969 10.2858 35.312 9.08198 34.8552 8.91823C34.2534 8.70249 33.6648 8.31651 33.7001 8.18462C33.7354 8.05272 34.4565 8.02301 35.0673 8.12661Z" fill="#E81212"/>
<path d="M34.6781 12.0243C35.2583 11.9697 40.8678 12.2674 40.8678 12.4342C40.8678 12.6011 35.1616 12.8838 34.6781 12.8439C34.0409 12.7912 33.3724 12.5708 33.3724 12.4342C33.3724 12.2977 34.0612 12.0824 34.6781 12.0243Z" fill="#E81212"/>
<path d="M65.024 5.95725C64.4776 6.16017 58.9823 7.32453 58.9391 7.16334C58.8959 7.00214 64.3345 5.25219 64.8119 5.16563C65.441 5.05156 66.1438 5.09149 66.1791 5.22339C66.2144 5.35528 65.6049 5.74152 65.024 5.95725Z" fill="#E81212"/>
<path d="M63.4123 2.38709C62.937 2.72451 57.9303 5.2715 57.8468 5.12697C57.7634 4.98245 62.5637 1.88453 63.0025 1.67734C63.5806 1.40434 64.2698 1.26102 64.3381 1.37928C64.4063 1.49753 63.9175 2.02838 63.4123 2.38709Z" fill="#E81212"/>
<path d="M35.6486 16.1535C36.195 15.9506 41.6903 14.7862 41.7335 14.9474C41.7767 15.1086 36.3381 16.8586 35.8607 16.9451C35.2317 17.0592 34.5289 17.0193 34.4935 16.8874C34.4582 16.7555 35.0677 16.3692 35.6486 16.1535Z" fill="#E81212"/>
<path d="M37.2603 19.7237C37.7356 19.3862 42.7423 16.8393 42.8258 16.9838C42.9092 17.1283 38.1089 20.2262 37.6701 20.4334C37.092 20.7064 36.4028 20.8497 36.3346 20.7315C36.2663 20.6132 36.7551 20.0824 37.2603 19.7237Z" fill="#E81212"/>
<path d="M53.712 41.7437C53.7685 42.0831 53.4603 45.3637 53.2875 45.3637C53.1146 45.3637 52.8219 42.0265 52.8632 41.7437C52.9177 41.371 53.1461 40.9801 53.2875 40.9801C53.4289 40.9801 53.6518 41.3829 53.712 41.7437Z" fill="#E81212"/>
<path d="M53.7119 51.5574C53.7685 51.218 53.4603 47.9373 53.2874 47.9373C53.1146 47.9373 52.8219 51.2746 52.8632 51.5574C52.9177 51.93 53.146 52.321 53.2874 52.321C53.4289 52.321 53.6518 51.9182 53.7119 51.5574Z" fill="#E81212"/>
<path d="M51.2019 42.1896C51.4205 42.4553 52.7939 45.4505 52.6443 45.5369C52.4946 45.6233 50.5725 42.8796 50.4669 42.614C50.3278 42.264 50.33 41.8113 50.4525 41.7406C50.5749 41.6699 50.9694 41.9072 51.2019 42.1896Z" fill="#E81212"/>
<path d="M56.1087 50.6885C55.988 50.3663 54.0807 47.6793 53.9311 47.7657C53.7814 47.8521 55.1965 50.8886 55.3737 51.1129C55.6072 51.4083 56.0004 51.6328 56.1229 51.5621C56.2454 51.4914 56.237 51.031 56.1087 50.6885Z" fill="#E81212"/>
<path d="M49.251 43.8308C49.5732 43.9516 52.2602 45.8588 52.1738 46.0085C52.0874 46.1581 49.0509 44.7431 48.8267 44.5658C48.5312 44.3323 48.3068 43.9391 48.3775 43.8167C48.4482 43.6942 48.9085 43.7025 49.251 43.8308Z" fill="#E81212"/>
<path d="M57.7499 48.7377C57.4843 48.519 54.4891 47.1456 54.4026 47.2953C54.3162 47.445 57.06 49.3671 57.3256 49.4727C57.6755 49.6118 58.1283 49.6096 58.199 49.4871C58.2697 49.3646 58.0323 48.9701 57.7499 48.7377Z" fill="#E81212"/>
<path d="M48.3822 46.2276C48.7216 46.1711 52.0022 46.4793 52.0022 46.6521C52.0022 46.8249 48.665 47.1177 48.3822 47.0763C48.0096 47.0218 47.6186 46.7935 47.6186 46.6521C47.6186 46.5107 48.0214 46.2877 48.3822 46.2276Z" fill="#E81212"/>
<path d="M58.1959 46.2276C57.8565 46.1711 54.5759 46.4793 54.5759 46.6521C54.5759 46.8249 57.9131 47.1177 58.1959 47.0763C58.5685 47.0218 58.9595 46.7935 58.9595 46.6521C58.9595 46.5107 58.5567 46.2877 58.1959 46.2276Z" fill="#E81212"/>
<path d="M48.8281 48.7377C49.0938 48.519 52.089 47.1456 52.1754 47.2953C52.2618 47.445 49.5181 49.3671 49.2525 49.4727C48.9025 49.6118 48.4498 49.6096 48.3791 49.4871C48.3084 49.3646 48.5457 48.9701 48.8281 48.7377Z" fill="#E81212"/>
<path d="M57.327 43.8308C57.0049 43.9516 54.3178 45.8588 54.4042 46.0085C54.4907 46.1581 57.5272 44.7431 57.7514 44.5659C58.0469 44.3323 58.2713 43.9391 58.2006 43.8167C58.1299 43.6942 57.6695 43.7025 57.327 43.8308Z" fill="#E81212"/>
<path d="M50.4694 50.6885C50.5901 50.3663 52.4973 47.6793 52.647 47.7657C52.7967 47.8521 51.3816 50.8886 51.2044 51.1129C50.9708 51.4083 50.5776 51.6328 50.4552 51.5621C50.3327 51.4914 50.341 51.031 50.4694 50.6885Z" fill="#E81212"/>
<path d="M55.3762 42.1896C55.1576 42.4553 53.7842 45.4505 53.9338 45.5369C54.0835 45.6233 56.0057 42.8796 56.1112 42.614C56.2503 42.264 56.2481 41.8113 56.1256 41.7406C56.0032 41.6699 55.6087 41.9072 55.3762 42.1896Z" fill="#E81212"/>
<path d="M55.5346 39.6105C55.4799 39.9705 54.3621 43.2933 54.2431 43.2614C54.124 43.2295 54.8436 39.7376 54.9502 39.4538C55.0906 39.08 55.3557 38.7194 55.4531 38.7455C55.5505 38.7716 55.5928 39.2277 55.5346 39.6105Z" fill="#FCCD05"/>
<path d="M51.6407 39.4544C51.7733 39.7936 52.4666 43.2301 52.3476 43.262C52.2286 43.2939 51.1058 39.91 51.0562 39.611C50.9909 39.2171 51.0402 38.7722 51.1376 38.7461C51.2349 38.72 51.4997 39.0938 51.6407 39.4544Z" fill="#FCCD05"/>
<path d="M55.5346 53.7041C55.4799 53.3441 54.3621 50.0213 54.2431 50.0532C54.124 50.0851 54.8436 53.577 54.9502 53.8607C55.0906 54.2346 55.3557 54.5952 55.4531 54.5691C55.5505 54.543 55.5928 54.0869 55.5346 53.7041Z" fill="#FCCD05"/>
<path d="M51.6407 53.8602C51.7733 53.521 52.4666 50.0845 52.3476 50.0526C52.2286 50.0207 51.1058 53.4046 51.0562 53.7036C50.9909 54.0975 51.0402 54.5424 51.1376 54.5685C51.2349 54.5946 51.4997 54.2208 51.6407 53.8602Z" fill="#FCCD05"/>
<path d="M48.3128 41.1955C48.5972 41.4229 50.9159 44.0524 50.8288 44.1395C50.7417 44.2266 48.0773 41.8575 47.8849 41.6234C47.6314 41.3149 47.4516 40.9049 47.5229 40.8336C47.5942 40.7624 48.0104 40.9537 48.3128 41.1955Z" fill="#FCCD05"/>
<path d="M46.2306 44.4897C46.5907 44.5445 49.9134 45.6623 49.8815 45.7813C49.8497 45.9003 46.3577 45.1808 46.074 45.0742C45.7002 44.9338 45.3396 44.6687 45.3656 44.5713C45.3917 44.4739 45.8479 44.4315 46.2306 44.4897Z" fill="#FCCD05"/>
<path d="M60.5183 48.2423C60.1791 48.1097 56.7426 47.4164 56.7107 47.5354C56.6788 47.6544 60.0627 48.7772 60.3617 48.8268C60.7556 48.8921 61.2005 48.8428 61.2266 48.7454C61.2527 48.6481 60.8789 48.3833 60.5183 48.2423Z" fill="#FCCD05"/>
<path d="M58.7064 51.6927C58.479 51.4082 55.8496 49.0895 55.7624 49.1766C55.6753 49.2638 58.0444 51.9281 58.2786 52.1205C58.5871 52.3741 58.997 52.5538 59.0683 52.4825C59.1396 52.4112 58.9482 51.995 58.7064 51.6927Z" fill="#FCCD05"/>
<path d="M46.0746 48.2423C46.4138 48.1097 49.8503 47.4164 49.8822 47.5354C49.914 47.6544 46.5302 48.7772 46.2312 48.8268C45.8372 48.8921 45.3923 48.8428 45.3663 48.7454C45.3402 48.6481 45.714 48.3833 46.0746 48.2423Z" fill="#FCCD05"/>
<path d="M47.8864 51.6927C48.1138 51.4082 50.7433 49.0895 50.8304 49.1767C50.9175 49.2638 48.5484 51.9281 48.3142 52.1205C48.0057 52.3741 47.5958 52.5538 47.5245 52.4825C47.4532 52.4112 47.6446 51.995 47.8864 51.6927Z" fill="#FCCD05"/>
<path d="M58.28 41.1955C57.9956 41.4229 55.6769 44.0524 55.764 44.1395C55.8511 44.2266 58.5155 41.8575 58.7079 41.6233C58.9614 41.3149 59.1412 40.9049 59.0699 40.8336C58.9986 40.7623 58.5824 40.9537 58.28 41.1955Z" fill="#FCCD05"/>
<path d="M60.3622 44.4897C60.0021 44.5445 56.6794 45.6623 56.7112 45.7813C56.7431 45.9003 60.2351 45.1808 60.5188 45.0742C60.8926 44.9338 61.2532 44.6687 61.2271 44.5713C61.201 44.4739 60.7449 44.4315 60.3622 44.4897Z" fill="#FCCD05"/>
<path d="M47.61 53.2934C47.8197 53.0401 50.1756 50.9216 50.2421 50.9882C50.3087 51.0547 48.1457 53.4433 47.9369 53.6202C47.6618 53.8533 47.3072 54.032 47.2527 53.9776C47.1983 53.9231 47.3871 53.5625 47.61 53.2934Z" fill="#E81212"/>
<path d="M49.4041 54.5827C49.5411 54.2839 51.2684 51.6278 51.35 51.6748C51.4315 51.7219 49.9603 54.5889 49.8044 54.8139C49.599 55.1102 49.3028 55.3746 49.2361 55.3361C49.1694 55.2976 49.2585 54.9004 49.4041 54.5827Z" fill="#E81212"/>
<path d="M59.0834 40.0285C58.8737 40.2817 56.5178 42.4002 56.4512 42.3336C56.3847 42.2671 58.5477 39.8785 58.7565 39.7016C59.0316 39.4685 59.3862 39.2898 59.4406 39.3442C59.4951 39.3987 59.3063 39.7593 59.0834 40.0285Z" fill="#E81212"/>
<path d="M57.2893 38.7391C57.1523 39.0379 55.425 41.694 55.3435 41.647C55.2619 41.5999 56.7331 38.7329 56.889 38.508C57.0944 38.2116 57.3906 37.9472 57.4573 37.9857C57.524 38.0242 57.4349 38.4214 57.2893 38.7391Z" fill="#E81212"/>
<path d="M51.6947 55.2731C51.7497 54.949 52.7307 51.9363 52.8216 51.9607C52.9126 51.9851 52.2336 55.1351 52.1412 55.3928C52.0195 55.7322 51.8018 56.0642 51.7275 56.0443C51.6531 56.0244 51.6363 55.6177 51.6947 55.2731Z" fill="#E81212"/>
<path d="M53.8932 55.4927C53.8624 55.1654 54.0303 52.0015 54.1244 52.0015C54.2185 52.0015 54.378 55.2199 54.3554 55.4927C54.3257 55.8521 54.2014 56.2291 54.1244 56.2291C54.0474 56.2291 53.9259 55.8406 53.8932 55.4927Z" fill="#E81212"/>
<path d="M54.9986 38.0487C54.9436 38.3728 53.9626 41.3855 53.8717 41.3611C53.7808 41.3367 54.4598 38.1867 54.5521 37.929C54.6738 37.5896 54.8915 37.2576 54.9659 37.2775C55.0403 37.2974 55.057 37.7041 54.9986 38.0487Z" fill="#E81212"/>
<path d="M52.8001 37.8291C52.8309 38.1564 52.6631 41.3203 52.5689 41.3203C52.4748 41.3203 52.3154 38.1019 52.3379 37.8291C52.3676 37.4697 52.4919 37.0927 52.5689 37.0927C52.646 37.0927 52.7674 37.4812 52.8001 37.8291Z" fill="#E81212"/>
<path d="M56.2222 54.9453C56.1077 54.6371 55.451 51.5375 55.5419 51.5132C55.6328 51.4888 56.6199 54.5563 56.6687 54.8256C56.733 55.1804 56.7105 55.5768 56.6361 55.5968C56.5617 55.6167 56.3439 55.2729 56.2222 54.9453Z" fill="#E81212"/>
<path d="M58.2359 54.0362C58.0456 53.7681 56.609 50.9442 56.6905 50.8971C56.772 50.85 58.5193 53.5576 58.6362 53.8051C58.7902 54.1311 58.871 54.5198 58.8043 54.5584C58.7376 54.5969 58.4382 54.3211 58.2359 54.0362Z" fill="#E81212"/>
<path d="M50.4712 38.3766C50.5856 38.6847 51.2424 41.7843 51.1514 41.8087C51.0605 41.833 50.0735 38.7655 50.0247 38.4962C49.9603 38.1414 49.9829 37.745 50.0572 37.7251C50.1316 37.7051 50.3495 38.0489 50.4712 38.3766Z" fill="#E81212"/>
<path d="M48.4575 39.2856C48.6478 39.5537 50.0844 42.3777 50.0029 42.4247C49.9214 42.4718 48.174 39.7642 48.0572 39.5168C47.9032 39.1907 47.8224 38.802 47.8891 38.7635C47.9558 38.725 48.2552 39.0007 48.4575 39.2856Z" fill="#E81212"/>
<path d="M59.9791 52.3976C59.7259 52.1879 57.6074 49.832 57.6739 49.7655C57.7405 49.6989 60.129 51.8619 60.306 52.0707C60.5391 52.3458 60.7178 52.7004 60.6633 52.7549C60.6089 52.8093 60.2483 52.6205 59.9791 52.3976Z" fill="#E81212"/>
<path d="M61.2685 50.6035C60.9696 50.4665 58.3135 48.7392 58.3606 48.6577C58.4077 48.5761 61.2747 50.0473 61.4996 50.2032C61.796 50.4086 62.0604 50.7048 62.0219 50.7715C61.9833 50.8382 61.5862 50.7491 61.2685 50.6035Z" fill="#E81212"/>
<path d="M46.7142 40.9242C46.9675 41.1339 49.086 43.4898 49.0194 43.5564C48.9529 43.6229 46.5643 41.4599 46.3874 41.2511C46.1543 40.976 45.9756 40.6214 46.03 40.567C46.0845 40.5125 46.4451 40.7013 46.7142 40.9242Z" fill="#E81212"/>
<path d="M45.4249 42.7183C45.7237 42.8553 48.3798 44.5827 48.3328 44.6642C48.2857 44.7457 45.4187 43.2745 45.1938 43.1187C44.8974 42.9133 44.633 42.617 44.6715 42.5503C44.71 42.4836 45.1072 42.5727 45.4249 42.7183Z" fill="#E81212"/>
<path d="M61.9589 48.3128C61.6348 48.2578 58.6221 47.2768 58.6465 47.1859C58.6708 47.095 61.8209 47.7739 62.0785 47.8663C62.418 47.988 62.75 48.2057 62.7301 48.2801C62.7101 48.3545 62.3035 48.3712 61.9589 48.3128Z" fill="#E81212"/>
<path d="M62.1785 46.1144C61.8512 46.1452 58.6872 45.9773 58.6872 45.8832C58.6872 45.7891 61.9057 45.6296 62.1785 45.6521C62.5378 45.6818 62.9149 45.8062 62.9149 45.8832C62.9149 45.9602 62.5264 46.0816 62.1785 46.1144Z" fill="#E81212"/>
<path d="M44.7345 45.009C45.0586 45.064 48.0712 46.045 48.0469 46.1359C48.0225 46.2268 44.8724 45.5479 44.6148 45.4555C44.2754 45.3338 43.9433 45.1161 43.9633 45.0417C43.9832 44.9673 44.3899 44.9506 44.7345 45.009Z" fill="#E81212"/>
<path d="M44.5149 47.2074C44.8422 47.1766 48.0061 47.3445 48.0061 47.4386C48.0061 47.5328 44.7876 47.6922 44.5149 47.6697C44.1555 47.64 43.7785 47.5157 43.7785 47.4386C43.7785 47.3616 44.1669 47.2402 44.5149 47.2074Z" fill="#E81212"/>
<path d="M61.6311 43.7854C61.3229 43.8999 58.2233 44.5566 58.199 44.4657C58.1746 44.3748 61.2421 43.3877 61.5114 43.3389C61.8662 43.2746 62.2626 43.2971 62.2826 43.3715C62.3025 43.4459 61.9587 43.6637 61.6311 43.7854Z" fill="#E81212"/>
<path d="M60.722 41.7717C60.4539 41.962 57.63 43.3986 57.5829 43.3171C57.5359 43.2356 60.2434 41.4883 60.4909 41.3714C60.8169 41.2174 61.2057 41.1366 61.2442 41.2033C61.2827 41.27 61.007 41.5694 60.722 41.7717Z" fill="#E81212"/>
<path d="M45.0623 49.5364C45.3705 49.422 48.4701 48.7652 48.4944 48.8561C48.5188 48.9471 45.4512 49.9341 45.182 49.9829C44.8271 50.0473 44.4308 50.0247 44.4108 49.9503C44.3909 49.8759 44.7347 49.6581 45.0623 49.5364Z" fill="#E81212"/>
<path d="M45.9714 51.5501C46.2394 51.3598 49.0634 49.9232 49.1105 50.0047C49.1575 50.0862 46.45 51.8336 46.2025 51.9504C45.8764 52.1044 45.4877 52.1852 45.4492 52.1185C45.4107 52.0518 45.6864 51.7524 45.9714 51.5501Z" fill="#E81212"/>
<path d="M22.3624 3.39129C22.419 3.05191 22.1108 -0.228746 21.938 -0.228746C21.7651 -0.228746 21.4724 3.10847 21.5137 3.39129C21.5682 3.76392 21.7966 4.15489 21.938 4.15489C22.0794 4.15489 22.3023 3.75207 22.3624 3.39129Z" fill="#E81212"/>
<path d="M24.7592 2.52243C24.6385 2.20025 22.7313 -0.486772 22.5816 -0.400363C22.4319 -0.313954 23.847 2.72255 24.0242 2.94679C24.2577 3.24225 24.651 3.46668 24.7734 3.39598C24.8959 3.32527 24.8876 2.86493 24.7592 2.52243Z" fill="#E81212"/>
<path d="M26.4005 0.571607C26.1348 0.352954 23.1396 -1.02046 23.0532 -0.870793C22.9668 -0.721128 25.7105 1.20103 25.9761 1.30661C26.3261 1.44573 26.7788 1.44349 26.8495 1.32102C26.9202 1.19856 26.6829 0.804051 26.4005 0.571607Z" fill="#E81212"/>
<path d="M17.4786 0.571605C17.7443 0.352952 20.7395 -1.02046 20.8259 -0.870795C20.9123 -0.72113 18.1686 1.20103 17.903 1.30661C17.553 1.44573 17.1003 1.44349 17.0296 1.32102C16.9589 1.19856 17.1962 0.804049 17.4786 0.571605Z" fill="#E81212"/>
<path d="M19.1199 2.52243C19.2406 2.20025 21.1479 -0.486778 21.2975 -0.400369C21.4472 -0.31396 20.0321 2.72255 19.8549 2.94678C19.6214 3.24224 19.2282 3.46667 19.1057 3.39597C18.9832 3.32527 18.9915 2.86493 19.1199 2.52243Z" fill="#E81212"/>
<path d="M24.1851 5.53804C24.1304 5.17799 23.0126 1.85522 22.8936 1.88711C22.7746 1.919 23.4941 5.41094 23.6007 5.69465C23.7411 6.06847 24.0062 6.4291 24.1036 6.40301C24.201 6.37692 24.2433 5.9208 24.1851 5.53804Z" fill="#FCCD05"/>
<path d="M20.2912 5.69412C20.4238 5.35493 21.1171 1.91842 20.9981 1.88653C20.8791 1.85464 19.7563 5.23852 19.7067 5.53751C19.6414 5.93144 19.6907 6.37633 19.7881 6.40243C19.8854 6.42852 20.1502 6.0547 20.2912 5.69412Z" fill="#FCCD05"/>
<path d="M29.1688 0.0762363C28.8296 -0.0563794 25.3931 -0.7497 25.3612 -0.630688C25.3293 -0.511675 28.7132 0.611135 29.0122 0.660709C29.4061 0.726035 29.851 0.676725 29.8771 0.579344C29.9032 0.481962 29.5294 0.217216 29.1688 0.0762363Z" fill="#FCCD05"/>
<path d="M27.357 3.52656C27.1295 3.24212 24.5001 0.923431 24.413 1.01055C24.3258 1.09768 26.695 3.762 26.9291 3.95443C27.2376 4.20797 27.6475 4.38771 27.7188 4.31642C27.7901 4.24513 27.5987 3.82894 27.357 3.52656Z" fill="#FCCD05"/>
<path d="M14.7251 0.0762401C15.0643 -0.0563756 18.5008 -0.749697 18.5327 -0.630684C18.5645 -0.511671 15.1807 0.611139 14.8817 0.660713C14.4877 0.726038 14.0428 0.676729 14.0168 0.579347C13.9907 0.481966 14.3645 0.21722 14.7251 0.0762401Z" fill="#FCCD05"/>
<path d="M16.5369 3.52656C16.7643 3.24212 19.3938 0.923433 19.4809 1.01056C19.568 1.09768 17.1989 3.762 16.9648 3.95443C16.6563 4.20797 16.2463 4.38771 16.175 4.31642C16.1037 4.24514 16.2951 3.82895 16.5369 3.52656Z" fill="#FCCD05"/>
<path d="M16.2605 5.12725C16.4702 4.87404 18.8261 2.75551 18.8927 2.82207C18.9592 2.88863 16.7962 5.27718 16.5874 5.45411C16.3123 5.68724 15.9577 5.86593 15.9033 5.81147C15.8488 5.75701 16.0376 5.39643 16.2605 5.12725Z" fill="#E81212"/>
<path d="M18.0546 6.41662C18.1916 6.11778 19.919 3.46168 20.0005 3.50874C20.082 3.5558 18.6108 6.42281 18.455 6.64775C18.2496 6.94413 17.9533 7.2085 17.8866 7.16999C17.8199 7.13148 17.909 6.73432 18.0546 6.41662Z" fill="#E81212"/>
<path d="M20.3453 7.10703C20.4002 6.78291 21.3813 3.77025 21.4722 3.79461C21.5631 3.81897 20.8841 6.96905 20.7918 7.22667C20.6701 7.56612 20.4524 7.89814 20.378 7.87821C20.3036 7.85827 20.2868 7.45159 20.3453 7.10703Z" fill="#E81212"/>
<path d="M22.5437 7.3266C22.5129 6.9993 22.6808 3.83538 22.7749 3.83538C22.869 3.83538 23.0285 7.05385 23.006 7.3266C22.9763 7.68597 22.8519 8.06303 22.7749 8.06303C22.6979 8.06303 22.5765 7.67454 22.5437 7.3266Z" fill="#E81212"/>
<path d="M24.8727 6.77918C24.7583 6.471 24.1015 3.37144 24.1925 3.34708C24.2834 3.32272 25.2704 6.39025 25.3192 6.65954C25.3836 7.01435 25.361 7.41074 25.2867 7.43067C25.2123 7.45061 24.9944 7.10679 24.8727 6.77918Z" fill="#E81212"/>
<path d="M26.8864 5.87009C26.6961 5.60204 25.2595 2.77807 25.341 2.73101C25.4225 2.68395 27.1699 5.39149 27.2867 5.63897C27.4407 5.96504 27.5215 6.35375 27.4548 6.39226C27.3881 6.43077 27.0887 6.15505 26.8864 5.87009Z" fill="#E81212"/>
<path d="M28.6296 4.23151C28.3764 4.02185 26.2579 1.66592 26.3245 1.59937C26.391 1.53281 28.7796 3.69585 28.9565 3.90465C29.1896 4.17976 29.3683 4.5343 29.3139 4.58876C29.2594 4.64322 28.8988 4.4544 28.6296 4.23151Z" fill="#E81212"/>
<path d="M29.919 2.43739C29.6202 2.30041 26.9641 0.573074 27.0111 0.491559C27.0582 0.410044 29.9252 1.88118 30.1502 2.03707C30.4465 2.24246 30.7109 2.53868 30.6724 2.60538C30.6339 2.67208 30.2367 2.58301 29.919 2.43739Z" fill="#E81212"/>
<path d="M30.6094 0.14672C30.2853 0.0917525 27.2726 -0.889276 27.297 -0.980194C27.3214 -1.07111 30.4714 -0.392141 30.7291 -0.299781C31.0685 -0.178095 31.4005 0.0396078 31.3806 0.114001C31.3607 0.188395 30.954 0.205154 30.6094 0.14672Z" fill="#E81212"/>
<path d="M13.7129 1.37033C14.021 1.25587 17.1206 0.599139 17.145 0.690057C17.1693 0.780975 14.1018 1.76801 13.8325 1.81683C13.4777 1.88117 13.0813 1.85865 13.0614 1.78425C13.0414 1.70986 13.3852 1.49201 13.7129 1.37033Z" fill="#E81212"/>
<path d="M14.6219 3.38402C14.89 3.1937 17.714 1.75712 17.761 1.83863C17.8081 1.92015 15.1005 3.66748 14.8531 3.78434C14.527 3.93832 14.1383 4.01916 14.0998 3.95246C14.0613 3.88576 14.337 3.58634 14.6219 3.38402Z" fill="#E81212"/>
</g>
<defs>
<clipPath id="clip0_2601_45536">
<rect width="60" height="60" rx="30" fill="white"/>
</clipPath>
</defs>
</svg>
