<svg width="14" height="7" viewBox="0 0 14 7" fill="none" xmlns="http://www.w3.org/2000/svg">
<path d="M10.3336 0.339159C10.1616 0.451519 10.0773 0.641127 10.1089 0.84829C10.1335 1.00981 10.1651 1.04492 11.1728 2.05616L12.2121 3.10251L6.2746 3.10954C0.33708 3.12007 0.333569 3.12007 0.238765 3.19381C0.0632025 3.32372 0 3.43959 0 3.6292C0 3.81881 0.0632025 3.93468 0.238765 4.0646C0.333569 4.13833 0.33708 4.13833 6.2746 4.14887L12.2121 4.15589L11.1728 5.20224C10.1651 6.21348 10.1335 6.24859 10.1089 6.41011C10.0597 6.72612 10.2915 7 10.6075 7C10.6918 7 10.7971 6.98244 10.8392 6.96138C10.9165 6.91924 13.8238 4.05757 13.9151 3.93468C13.9923 3.82583 14.0239 3.62569 13.9853 3.47822C13.9572 3.36937 13.6939 3.09198 12.4404 1.84549C11.6082 1.02034 10.8919 0.328625 10.8533 0.304047C10.7234 0.23031 10.467 0.247867 10.3336 0.339159Z" fill="#443E3E"/>
</svg>
