<svg width="22" height="19" viewBox="0 0 22 19" fill="none" xmlns="http://www.w3.org/2000/svg">
<path d="M5.9533 3.53357L19.6757 3.53357H19.6758L5.9533 3.53357ZM5.9533 3.53357L5.46717 1.23495L5.46717 1.23495C5.44451 1.12786 5.38576 1.0318 5.30073 0.962866C5.21571 0.893926 5.10959 0.856287 5.00013 0.85625H5.00011H0.549316H0.499316V0.90625V1.76135V1.81135H0.549316H4.61326L7.02545 13.2193L7.07437 13.209L7.02545 13.2194C7.04812 13.3265 7.10691 13.4226 7.19199 13.4915C7.27706 13.5605 7.38324 13.5981 7.49273 13.598H17.0248H17.025V13.548L5.9533 3.53357ZM6.15529 4.48867L19.6774 4.48867C19.7303 4.48872 19.7824 4.50078 19.8299 4.52395C19.8773 4.54711 19.9189 4.58076 19.9515 4.62236C19.9841 4.66396 20.0067 4.71242 20.0178 4.76408C20.0289 4.81572 20.0281 4.86921 20.0154 4.92049L20.0154 4.92053M6.15529 4.48867L20.0154 4.92053M6.15529 4.48867L7.87979 12.6429H17.025H17.0251C17.3337 12.6437 17.6337 12.5408 17.8769 12.3507C18.12 12.1606 18.2922 11.8943 18.3659 11.5946L18.366 11.5945L20.0154 4.92053M6.15529 4.48867L20.0154 4.92053" fill="#443E3E" stroke="#443E3E" stroke-width="0.1"/>
<path d="M11.7734 16.3126V16.3126C11.7735 15.9504 11.6661 15.5963 11.4649 15.2951C11.2637 14.9939 10.9777 14.7591 10.643 14.6204C10.3084 14.4818 9.94015 14.4455 9.58488 14.5161C9.22962 14.5868 8.90327 14.7612 8.64713 15.0173C8.39098 15.2734 8.21653 15.5997 8.14585 15.955C8.07517 16.3103 8.11142 16.6785 8.25003 17.0131C8.38864 17.3478 8.62337 17.6338 8.92455 17.8351C9.22572 18.0363 9.57981 18.1437 9.94204 18.1437H9.94209C10.4276 18.1432 10.8931 17.9501 11.2364 17.6069C11.5797 17.2636 11.7728 16.7981 11.7734 16.3126ZM9.45522 15.5837C9.5942 15.4909 9.75673 15.4398 9.92359 15.4363L9.94198 15.4363C10.1743 15.4366 10.3971 15.529 10.5614 15.6933C10.7256 15.8575 10.8181 16.0803 10.8183 16.3126L10.8683 16.3126L10.8183 16.3126C10.8183 16.4859 10.7669 16.6553 10.6705 16.7993C10.5742 16.9434 10.4374 17.0557 10.2772 17.122C10.1171 17.1883 9.94093 17.2056 9.77096 17.1718C9.60099 17.1379 9.44487 17.0545 9.32233 16.9319C9.1998 16.8094 9.11637 16.6532 9.08257 16.4832C9.04878 16.3133 9.06614 16.1371 9.13247 15.977C9.1988 15.8169 9.31112 15.68 9.45522 15.5837Z" fill="#443E3E" stroke="#443E3E" stroke-width="0.1"/>
<path d="M17.8874 16.3126V16.3126C17.8875 15.9503 17.7801 15.5962 17.5788 15.295C17.3776 14.9938 17.0915 14.759 16.7568 14.6204C16.4221 14.4817 16.0539 14.4455 15.6986 14.5162C15.3433 14.5869 15.0169 14.7614 14.7608 15.0176C14.5047 15.2738 14.3303 15.6002 14.2598 15.9555C14.1892 16.3109 14.2256 16.6791 14.3643 17.0138C14.503 17.3484 14.7379 17.6344 15.0392 17.8355C15.3405 18.0367 15.6947 18.1439 16.0569 18.1438H16.057C16.5423 18.143 17.0076 17.9498 17.3507 17.6066C17.6938 17.2633 17.8868 16.798 17.8874 16.3126ZM15.5698 15.5834C15.7089 15.4906 15.8715 15.4396 16.0384 15.4363L16.0568 15.4363C16.289 15.4368 16.5115 15.5293 16.6756 15.6935C16.8398 15.8578 16.9321 16.0804 16.9323 16.3126L16.9823 16.3126L16.9323 16.3126C16.9323 16.4859 16.8808 16.6553 16.7845 16.7994C16.6881 16.9435 16.5512 17.0558 16.3911 17.1221C16.2309 17.1884 16.0547 17.2056 15.8847 17.1717C15.7147 17.1378 15.5586 17.0543 15.4361 16.9316C15.3136 16.809 15.2302 16.6528 15.1965 16.4828C15.1628 16.3127 15.1803 16.1365 15.2467 15.9764C15.3132 15.8163 15.4256 15.6795 15.5698 15.5834Z" fill="#443E3E" stroke="#443E3E" stroke-width="0.1"/>
</svg>
