<svg width="23" height="15" viewBox="0 0 23 15" fill="none" xmlns="http://www.w3.org/2000/svg">
<path d="M11.2461 0.429688C11.2022 0.463867 10.499 1.58691 9.68849 2.92969C8.58009 4.75586 8.17482 5.38574 8.06251 5.4541C7.96486 5.5127 7.81837 5.54688 7.65724 5.54688C7.28615 5.54688 7.15919 5.41016 6.51954 4.31641C5.8506 3.17383 5.77736 3.07617 5.61134 3.04199C5.31837 2.98828 5.23536 3.07129 4.73243 3.90137C3.96583 5.16602 3.84376 5.34668 3.67286 5.44922C3.50685 5.55176 3.22853 5.57617 3.04298 5.50293C2.9795 5.47852 2.51564 5.05859 2.01271 4.57031C1.10939 3.69629 1.08986 3.68164 0.918957 3.70605C0.718762 3.74023 0.582043 3.84766 0.542981 4.00879C0.523449 4.08691 0.904309 5.27344 1.73927 7.70508C2.47657 9.87305 2.9795 11.4209 3.01368 11.6357C3.06739 11.9824 3.04298 12.3145 2.91114 12.9199C2.75001 13.6621 2.96974 14.209 3.56544 14.5215L3.80958 14.6533H11.5293H19.2442L19.5322 14.5068C19.8643 14.3359 20.1084 14.0479 20.1963 13.7354C20.2647 13.4814 20.2256 13.0176 20.1133 12.7246C20.0449 12.5586 20.0254 12.3584 20.0254 11.8945V11.2842L21.2363 7.76855C21.9004 5.83496 22.4473 4.17969 22.4473 4.08691C22.4473 3.88184 22.3203 3.74512 22.0859 3.70605C21.9102 3.68164 21.8955 3.69141 21.0361 4.52148C20.5576 4.99023 20.1035 5.41016 20.0205 5.45898C19.8301 5.57617 19.5225 5.57129 19.3272 5.44922C19.1563 5.34668 19.0342 5.16602 18.2676 3.90137C17.8916 3.28125 17.7598 3.10059 17.6524 3.06152C17.5059 3.0127 17.3301 3.03711 17.2276 3.11523C17.1934 3.13965 16.8906 3.62793 16.5537 4.19922C16.2168 4.77051 15.875 5.29785 15.8018 5.37109C15.543 5.62012 15.1133 5.625 14.8496 5.38574C14.7813 5.32715 14.0781 4.19922 13.2822 2.88574C12.4863 1.56738 11.8027 0.463867 11.7588 0.429688C11.7149 0.400391 11.5977 0.371094 11.5 0.371094C11.4024 0.371094 11.2901 0.400391 11.2461 0.429688ZM12.7891 3.69629C13.4873 4.84863 14.1318 5.86914 14.2246 5.96191C14.5274 6.26465 14.7764 6.35254 15.333 6.35254C15.7676 6.35254 15.8506 6.33789 16.0654 6.2207C16.4121 6.04004 16.5147 5.91309 17.0371 5.03906L17.4961 4.26758L17.6133 4.45312C17.6817 4.56055 17.8867 4.89746 18.0723 5.20508C18.6484 6.16211 18.9219 6.35254 19.7031 6.35254C20.2402 6.35254 20.4356 6.27441 20.8359 5.89844L21.0703 5.67871L20.6504 6.89453C19.9277 8.98438 19.5078 10.2393 19.3369 10.8203L19.1758 11.3818L11.5049 11.3965L3.834 11.4062L3.8047 11.2744C3.77052 11.1035 3.13087 9.1748 2.45216 7.19238L1.93458 5.68359L2.16896 5.90332C2.56447 6.27441 2.75978 6.35254 3.29689 6.35254C4.07814 6.35254 4.35157 6.16211 4.92775 5.20508C5.11329 4.89746 5.31837 4.56055 5.38673 4.45312L5.50392 4.26758L5.9629 5.03906C6.48536 5.91309 6.5879 6.04004 6.93458 6.2207C7.14943 6.33789 7.23243 6.35254 7.667 6.35254C8.22365 6.35254 8.47267 6.26465 8.7754 5.96191C8.86818 5.86914 9.51271 4.84863 10.2109 3.69141C10.9043 2.53906 11.4854 1.59668 11.5 1.59668C11.5147 1.59668 12.0957 2.53906 12.7891 3.69629ZM19.1904 12.417C19.21 12.5195 19.2637 12.7637 19.3174 12.959C19.4395 13.4229 19.4346 13.4766 19.2686 13.6621L19.127 13.8232H11.5488H3.97072L3.82911 13.6621C3.64357 13.457 3.64845 13.3496 3.86329 12.3438L3.88282 12.2363H11.5244H19.1611L19.1904 12.417Z" fill="#443E3E"/>
<path d="M11.3682 5.25385C11.2363 5.30756 11.1485 5.43939 10.8067 6.10834C10.6699 6.37689 10.5528 6.6015 10.5479 6.61127C10.5381 6.62103 10.2207 6.66986 9.84475 6.72357C9.11721 6.82123 8.99514 6.85541 8.91213 7.01166C8.79006 7.24115 8.84377 7.34857 9.39553 7.9101L9.92776 8.45209L9.81545 9.03803C9.66408 9.80463 9.6592 9.99017 9.80568 10.1269C9.98635 10.2978 10.1768 10.2636 10.8555 9.92182L11.4756 9.60932L12.086 9.94623C12.7207 10.2929 12.8672 10.3369 13.0528 10.205C13.2627 10.0585 13.2676 9.98529 13.1504 9.22846L13.043 8.51557L13.5655 8.00775C13.8487 7.72943 14.0977 7.44623 14.1172 7.37787C14.1612 7.20209 14.0537 6.98236 13.9024 6.91889C13.7949 6.87494 12.6475 6.66986 12.5156 6.66986C12.4961 6.66986 12.3399 6.37689 12.169 6.02045C11.9981 5.66889 11.8272 5.3515 11.7881 5.31732C11.6856 5.23432 11.4903 5.20502 11.3682 5.25385ZM11.9541 7.37299C12.0127 7.41205 12.1592 7.456 12.2813 7.47553C12.4033 7.49017 12.5645 7.51947 12.6377 7.52924L12.7744 7.55853L12.4815 7.86615C12.1543 8.20795 12.1348 8.26654 12.2324 8.76947C12.2617 8.91107 12.2715 9.03803 12.2617 9.04779C12.252 9.05756 12.0957 8.9892 11.9151 8.89642C11.7344 8.79877 11.5342 8.72064 11.4707 8.72064C11.4024 8.72064 11.1973 8.79877 11.002 8.89642L10.6553 9.07221L10.6895 8.9306C10.7041 8.85736 10.7334 8.64252 10.7481 8.46185L10.7822 8.12982L10.4746 7.81732L10.1719 7.50971L10.4795 7.47553C11.0362 7.41693 11.0899 7.38764 11.3145 6.9726L11.5196 6.6015L11.6807 6.95307C11.7686 7.1435 11.8906 7.33392 11.9541 7.37299Z" fill="#443E3E"/>
</svg>
