<svg width="12" height="16" viewBox="0 0 12 16" fill="none" xmlns="http://www.w3.org/2000/svg">
<path d="M7.34625 0.477163C6.90391 0.774038 6.17953 1.49841 5.74016 2.07732C5.03656 3.01248 4.52594 4.11388 4.32703 5.13513C4.18453 5.86544 4.10141 6.75013 4.09844 7.54576C4.09844 7.86341 4.08953 7.9406 4.05688 7.9406C4.03609 7.9406 3.91141 7.88716 3.78078 7.82185C3.22859 7.54576 2.78625 6.86888 2.58438 5.98123C2.50125 5.6131 2.48344 5.57748 2.37063 5.50623C2.23703 5.42607 2.15094 5.43201 1.97578 5.53294C1.53344 5.78529 1.06438 6.39388 0.776407 7.08263C0.274689 8.28201 0.147032 10.0751 0.473595 11.3398C0.829845 12.7262 1.75313 13.985 2.96734 14.739C3.90844 15.3209 4.88219 15.6 5.99844 15.6C7.55406 15.6 8.94047 15.027 10.033 13.9345C10.9266 13.0409 11.4609 11.9692 11.6569 10.6778C11.7163 10.2681 11.7014 9.30623 11.6242 8.78669C11.4877 7.86341 11.2056 7.02326 10.7544 6.20388C10.4723 5.69029 10.2141 5.29841 9.51047 4.3306C8.76531 3.30638 8.60203 3.05107 8.37344 2.58201C8.09734 2.01498 7.92813 1.39748 7.92813 0.952164C7.92516 0.560288 7.82719 0.399976 7.58969 0.399976C7.50063 0.399976 7.42641 0.423726 7.34625 0.477163ZM7.33438 1.59341C7.41156 2.05357 7.60156 2.57013 7.87766 3.08669C8.11219 3.52607 8.33484 3.85857 8.95828 4.71357C9.80735 5.87732 10.0627 6.28107 10.3981 6.98763C10.977 8.21076 11.1848 9.73076 10.9384 10.939C10.6861 12.1651 9.90531 13.3319 8.85734 14.0473C8.605 14.2225 8.07656 14.5223 8.07656 14.4926C8.07656 14.4837 8.13 14.3858 8.19531 14.2759C8.4625 13.8217 8.58422 13.219 8.52485 12.6431C8.44172 11.8237 8.2725 11.4051 7.64016 10.464C7.43828 10.1612 7.22453 9.81982 7.16813 9.70107C7.05828 9.47248 6.97813 9.16373 6.97813 8.95294C6.97813 8.84607 6.96031 8.80748 6.87719 8.72435C6.68719 8.53435 6.49719 8.59669 6.11422 8.97669C5.76391 9.32701 5.41953 9.87623 5.24734 10.3601C5.14938 10.6333 5.08406 10.9687 5.05141 11.3636C5.03656 11.5417 5.01578 11.6931 5.00688 11.702C4.98016 11.7287 4.84359 11.4229 4.79313 11.2181C4.69813 10.8411 4.49031 10.7283 4.21422 10.9064C3.89953 11.1023 3.62641 11.5951 3.5225 12.1503C3.37406 12.9459 3.475 13.7178 3.80156 14.2759C3.86688 14.3887 3.91734 14.4837 3.91141 14.4897C3.89063 14.5104 3.285 14.1542 3.02375 13.9672C2.20734 13.3883 1.50672 12.4204 1.195 11.4437C1.01094 10.8619 0.966407 10.5501 0.969376 9.81091C0.972345 8.68873 1.12078 7.91685 1.48594 7.15388C1.62844 6.85701 1.94906 6.38498 1.99063 6.41169C2.0025 6.4206 2.02328 6.46216 2.03516 6.50669C2.10344 6.79763 2.39734 7.39732 2.59625 7.65857C3.0475 8.25529 3.5225 8.54919 4.17266 8.62935C4.41016 8.65607 4.45469 8.65607 4.54969 8.61154C4.72484 8.52841 4.75156 8.43341 4.75156 7.90498C4.75453 6.6581 4.87625 5.54779 5.09891 4.77888C5.40766 3.70123 6.10828 2.54935 6.97813 1.68248C7.14735 1.51623 7.28984 1.37966 7.29281 1.37966C7.29578 1.37966 7.31656 1.47763 7.33438 1.59341ZM6.44375 9.69513C6.44375 9.79904 6.74953 10.3453 7.09984 10.8648C7.67578 11.7198 7.82719 12.1058 7.85985 12.8123C7.87172 13.1062 7.86578 13.2339 7.82719 13.415C7.75 13.7594 7.57188 14.0829 7.31656 14.3501C7.08203 14.5965 6.87422 14.7361 6.56844 14.8519C6.39328 14.9201 6.325 14.929 5.99844 14.929C5.67188 14.929 5.60359 14.9201 5.42844 14.8519C5.12266 14.7361 4.91484 14.5965 4.68328 14.3531C4.29141 13.9464 4.12813 13.5129 4.12813 12.8984C4.12813 12.7084 4.14297 12.4739 4.16078 12.3759C4.20234 12.1444 4.27656 11.889 4.30031 11.889C4.31219 11.889 4.35078 11.9395 4.38641 12.0019C4.58234 12.3403 4.88813 12.5422 5.24141 12.5659C5.48188 12.5808 5.58578 12.5392 5.63625 12.3997C5.65406 12.3551 5.67484 12.1176 5.68672 11.8742C5.72531 10.9153 5.84703 10.4789 6.22406 9.90888C6.37547 9.68029 6.44375 9.61498 6.44375 9.69513Z" fill="white"/>
</svg>
