<svg width="19" height="18" viewBox="0 0 19 18" fill="none" xmlns="http://www.w3.org/2000/svg">
<path d="M10.5098 0.0434704C10.2371 0.134367 10.0223 0.262449 9.84874 0.431847C9.75785 0.518612 8.94804 1.62177 8.04321 2.88192C6.34096 5.26589 6.02696 5.67493 5.3411 6.38557L4.93207 6.81526L4.7544 6.54671C3.97352 5.34853 2.30846 5.17913 1.31273 6.18725C0.994591 6.50952 0.808666 6.85245 0.71777 7.28214C0.626873 7.71184 0.626873 14.8266 0.71777 15.2563C0.895431 16.0908 1.53997 16.756 2.35804 16.9502C3.29593 17.1692 4.27926 16.7726 4.77093 15.9752L4.9238 15.7314L5.3411 16.1363C5.81624 16.5908 6.1633 16.7932 6.70455 16.9296C7.01855 17.0081 7.17143 17.0122 10.2371 17.0122C13.7697 17.0122 13.7284 17.0122 14.2242 16.756C14.5382 16.5908 15.0298 16.1115 15.1703 15.8347C15.4678 15.2439 18.1493 9.13726 18.2278 8.87283C18.3063 8.60014 18.3187 8.4638 18.3187 7.75728C18.3187 7.01772 18.3104 6.93095 18.2236 6.72024C18.0212 6.21204 17.6493 5.83193 17.1824 5.63774C16.9552 5.54684 16.9428 5.54684 14.2407 5.53445C12.745 5.53032 11.5221 5.51379 11.5221 5.50553C11.5221 5.49313 11.7493 4.92296 12.022 4.23711C12.2988 3.54712 12.5674 2.86126 12.6211 2.70839C12.964 1.70027 12.5632 0.592981 11.7039 0.167419C11.427 0.0310745 11.3485 0.0145493 11.0345 0.0021534C10.8156 -0.00610924 10.609 0.0104179 10.5098 0.0434704ZM11.3733 1.0516C11.6295 1.23339 11.8113 1.60937 11.8113 1.96469C11.8113 2.22086 11.77 2.34067 11.0882 4.04705C10.6916 5.04278 10.3652 5.91456 10.3652 5.98067C10.3652 6.1542 10.4354 6.28641 10.5718 6.36491C10.6751 6.42689 10.9643 6.43515 13.6581 6.43515C16.0297 6.43928 16.6577 6.45168 16.7817 6.493C17.0172 6.57976 17.2072 6.74503 17.3105 6.95987C17.4014 7.14167 17.4097 7.2119 17.4056 7.73663C17.4056 8.06716 17.3808 8.41422 17.3518 8.5423C17.2981 8.75715 14.6249 14.8307 14.3605 15.3306C14.2118 15.6198 13.9845 15.8264 13.6747 15.9752L13.4433 16.0826L10.3652 16.095C6.92766 16.1074 6.91939 16.1074 6.45665 15.8306C6.3203 15.7479 5.97324 15.4463 5.6675 15.1406L5.11799 14.5952V11.2733V7.9556L5.81211 7.24496C6.7376 6.29467 7.03095 5.91869 8.8778 3.3364C9.74958 2.1217 10.4892 1.10118 10.5263 1.07225C10.7784 0.865671 11.0965 0.857409 11.3733 1.0516ZM3.40335 6.55497C3.67604 6.67479 3.9322 6.93921 4.06855 7.23256L4.18837 7.48873V11.2692V15.0497L4.06855 15.3058C3.84131 15.8058 3.41988 16.0785 2.88689 16.0785C2.35391 16.0785 1.93248 15.8058 1.70524 15.3058L1.58542 15.0497V11.2692V7.48873L1.70111 7.24083C2.01924 6.5591 2.75055 6.26575 3.40335 6.55497Z" fill="#443E3E"/>
</svg>
