<svg width="17" height="19" viewBox="0 0 17 19" fill="none" xmlns="http://www.w3.org/2000/svg">
<path d="M6.87315 0.719595H6.84306L6.83985 0.719595C6.56163 0.719594 6.40321 0.719592 6.26643 0.725565C3.01774 0.867405 0.41634 3.46881 0.274499 6.71749C0.268527 6.85428 0.268528 7.01269 0.26853 7.29091L0.26853 7.29413V7.32421L0.26853 7.32742C0.268528 7.60565 0.268527 7.76406 0.274499 7.90084C0.41634 11.1495 3.01774 13.7509 6.26643 13.8928C6.40324 13.8987 6.5617 13.8987 6.84004 13.8987H6.84307H6.87313H6.87617C7.15451 13.8987 7.31296 13.8987 7.44978 13.8928C10.6985 13.7509 13.2999 11.1495 13.4417 7.90084C13.4477 7.76403 13.4477 7.60557 13.4477 7.32723V7.3242V7.29414V7.2911C13.4477 7.01276 13.4477 6.85431 13.4417 6.7175C13.2999 3.46881 10.6985 0.867405 7.44978 0.725565C7.313 0.719592 7.15458 0.719594 6.87636 0.719595L6.87315 0.719595ZM6.31401 1.81525C6.42394 1.81045 6.55695 1.81032 6.8581 1.81032C7.15926 1.81032 7.29227 1.81045 7.4022 1.81525C10.0859 1.93242 12.2348 4.08139 12.352 6.76507C12.3568 6.87501 12.357 7.00801 12.357 7.30917C12.357 7.61032 12.3568 7.74333 12.352 7.85327C12.2348 10.5369 10.0859 12.6859 7.4022 12.8031C7.29227 12.8079 7.15926 12.808 6.8581 12.808C6.55695 12.808 6.42394 12.8079 6.31401 12.8031C3.63033 12.6859 1.48136 10.5369 1.36419 7.85327C1.35939 7.74333 1.35926 7.61032 1.35926 7.30917C1.35926 7.00801 1.35939 6.87501 1.36419 6.76507C1.48136 4.08139 3.63033 1.93242 6.31401 1.81525Z" fill="#443E3E" stroke="#443E3E" stroke-width="0.2"/>
<path d="M11.8275 12.5367C11.602 12.3077 11.3596 12.1327 11.147 12.0369C11.041 11.9891 10.9374 11.9587 10.8441 11.9543C10.7508 11.9499 10.6568 11.9714 10.588 12.0412C10.5193 12.111 10.4981 12.2066 10.5024 12.3014C10.5068 12.3962 10.5367 12.5013 10.5837 12.609C10.6781 12.825 10.8503 13.0713 11.0758 13.3003L15.1565 17.4456C15.382 17.6747 15.6244 17.8496 15.837 17.9455C15.943 17.9933 16.0466 18.0237 16.1399 18.0281C16.2332 18.0325 16.3273 18.0109 16.396 17.9411C16.4647 17.8713 16.4859 17.7758 16.4816 17.681C16.4772 17.5862 16.4473 17.481 16.4003 17.3733C16.3059 17.1573 16.1337 16.9111 15.9082 16.682L11.8275 12.5367Z" fill="#443E3E" stroke="#443E3E" stroke-width="0.2" stroke-linecap="round" stroke-linejoin="round"/>
</svg>
