<svg width="15" height="19" viewBox="0 0 15 19" fill="none" xmlns="http://www.w3.org/2000/svg">
<path d="M9.18283 0.0964851C8.6299 0.467579 7.72443 1.37305 7.17521 2.09668C6.29572 3.26562 5.65743 4.64238 5.4088 5.91895C5.23068 6.83184 5.12677 7.9377 5.12306 8.93223C5.12306 9.3293 5.11193 9.42578 5.07111 9.42578C5.04513 9.42578 4.88927 9.35898 4.72599 9.27734C4.03575 8.93223 3.48283 8.08613 3.23048 6.97656C3.12658 6.51641 3.10431 6.47188 2.96329 6.38281C2.7963 6.28262 2.68868 6.29004 2.46974 6.41621C1.91681 6.73164 1.33048 7.49238 0.97052 8.35332C0.343372 9.85254 0.183802 12.0939 0.592005 13.6748C1.03732 15.4078 2.19142 16.9813 3.70919 17.9238C4.88556 18.6512 6.10275 19 7.49806 19C9.44259 19 11.1756 18.2838 12.5412 16.9182C13.6582 15.8012 14.3262 14.4615 14.5711 12.8473C14.6453 12.3352 14.6268 11.1328 14.5303 10.4834C14.3596 9.3293 14.007 8.2791 13.443 7.25488C13.0904 6.61289 12.7676 6.12305 11.8881 4.91328C10.9567 3.63301 10.7526 3.31387 10.4668 2.72754C10.1217 2.01875 9.91017 1.24688 9.91017 0.690235C9.90646 0.200392 9.784 0 9.48712 0C9.37579 0 9.28302 0.0296879 9.18283 0.0964851ZM9.16798 1.4918C9.26447 2.06699 9.50197 2.7127 9.84708 3.3584C10.1402 3.90762 10.4186 4.32324 11.1979 5.39199C12.2592 6.84668 12.5783 7.35137 12.9977 8.23457C13.7213 9.76348 13.9811 11.6635 13.6731 13.1738C13.3576 14.7064 12.3817 16.1648 11.0717 17.0592C10.7563 17.2781 10.0957 17.6529 10.0957 17.6158C10.0957 17.6047 10.1625 17.4822 10.2442 17.3449C10.5781 16.7771 10.7303 16.0238 10.6561 15.3039C10.5522 14.2797 10.3406 13.7564 9.55021 12.5801C9.29786 12.2016 9.03068 11.7748 8.96017 11.6264C8.82286 11.3406 8.72267 10.9547 8.72267 10.6912C8.72267 10.5576 8.7004 10.5094 8.5965 10.4055C8.359 10.168 8.1215 10.2459 7.64279 10.7209C7.2049 11.1588 6.77443 11.8453 6.55919 12.4502C6.43673 12.7916 6.35509 13.2109 6.31427 13.7045C6.29572 13.9271 6.26974 14.1164 6.25861 14.1275C6.22521 14.1609 6.0545 13.7787 5.99142 13.5227C5.87267 13.0514 5.6129 12.9104 5.26779 13.133C4.87443 13.3779 4.53302 13.9939 4.40314 14.6879C4.21759 15.6824 4.34376 16.6473 4.75197 17.3449C4.83361 17.4859 4.89669 17.6047 4.88927 17.6121C4.86329 17.6381 4.10626 17.1928 3.7797 16.959C2.75919 16.2354 1.88341 15.0256 1.49376 13.8047C1.26368 13.0773 1.20802 12.6877 1.21173 11.7637C1.21544 10.3609 1.40099 9.39609 1.85743 8.44238C2.03556 8.07129 2.43634 7.48125 2.48829 7.51465C2.50314 7.52578 2.52911 7.57773 2.54396 7.6334C2.62931 7.99707 2.99669 8.74668 3.24533 9.07324C3.80939 9.81914 4.40314 10.1865 5.21583 10.2867C5.51271 10.3201 5.56837 10.3201 5.68712 10.2645C5.90607 10.1605 5.93947 10.0418 5.93947 9.38125C5.94318 7.82266 6.09532 6.43477 6.37365 5.47363C6.75958 4.12656 7.63536 2.68672 8.72267 1.60312C8.93419 1.39531 9.11232 1.22461 9.11603 1.22461C9.11974 1.22461 9.14572 1.34707 9.16798 1.4918ZM8.0547 11.6189C8.0547 11.7488 8.43693 12.4316 8.87482 13.0811C9.59474 14.1498 9.784 14.6322 9.82482 15.5154C9.83966 15.8828 9.83224 16.0424 9.784 16.2687C9.68751 16.6992 9.46486 17.1037 9.14572 17.4377C8.85255 17.7457 8.59279 17.9201 8.21056 18.0648C7.99161 18.1502 7.90626 18.1613 7.49806 18.1613C7.08986 18.1613 7.0045 18.1502 6.78556 18.0648C6.40333 17.9201 6.14357 17.7457 5.85411 17.4414C5.36427 16.933 5.16017 16.3912 5.16017 15.623C5.16017 15.3855 5.17872 15.0924 5.20099 14.9699C5.25294 14.6805 5.34572 14.3613 5.3754 14.3613C5.39025 14.3613 5.43849 14.4244 5.48302 14.5023C5.72794 14.9254 6.11017 15.1777 6.55177 15.2074C6.85236 15.226 6.98224 15.174 7.04533 14.9996C7.06759 14.9439 7.09357 14.6471 7.10841 14.3428C7.15665 13.1441 7.3088 12.5986 7.78009 11.8861C7.96935 11.6004 8.0547 11.5188 8.0547 11.6189Z" fill="#443E3E"/>
</svg>
