<svg width="20" height="20" viewBox="0 0 20 20" fill="none" xmlns="http://www.w3.org/2000/svg">
<path fill-rule="evenodd" clip-rule="evenodd" d="M9.69661 0.0601704C9.6261 0.0932621 9.53665 0.163982 9.49782 0.217337C9.45899 0.27073 8.8086 1.5696 8.05258 3.10379L6.67794 5.8932L3.55438 6.34682C1.65594 6.62252 0.384068 6.82345 0.311607 6.85907C0.173677 6.927 0.0505914 7.10187 0.0152008 7.28023C-0.0429242 7.57303 -0.0218694 7.59787 1.74774 9.32466C2.66294 10.2177 3.68973 11.2161 4.02954 11.5433L4.64731 12.1382L4.12102 15.2057C3.83153 16.8928 3.59461 18.3418 3.59454 18.4257C3.59403 18.844 4.09063 19.1181 4.49567 18.9232C4.59075 18.8774 5.86071 18.213 7.31778 17.4467C8.86266 16.6343 9.99497 16.0605 10.034 16.0702C10.0709 16.0794 11.2781 16.7062 12.7168 17.463C15.9196 19.1479 15.6375 19.0108 15.8518 18.9878C16.1563 18.9551 16.4071 18.701 16.4065 18.4257C16.4064 18.3418 16.1694 16.8928 15.8799 15.2057L15.3536 12.1382L15.9715 11.5433C16.3114 11.2161 17.3382 10.2177 18.2534 9.32466C20.0231 7.59787 20.0441 7.57303 19.986 7.28023C19.9504 7.10101 19.8273 6.92689 19.6875 6.85807C19.6124 6.82111 18.3827 6.62672 16.4534 6.34689C14.7413 6.09855 13.3279 5.87781 13.3124 5.85632C13.297 5.83486 12.6746 4.57912 11.9291 3.06583C11.1838 1.55253 10.5419 0.270433 10.5028 0.216705C10.354 0.0120201 9.96165 -0.0641652 9.69661 0.0601704Z" fill="#FDEFB6"/>
</svg>
