<svg width="21" height="20" viewBox="0 0 21 20" fill="none" xmlns="http://www.w3.org/2000/svg">
<g clip-path="url(#clip0_2601_2390)">
<path d="M2.11327 3.72661C1.38671 3.90239 0.777331 4.50004 0.562488 5.23832C0.503894 5.43364 0.499988 5.93364 0.5078 10.0625L0.519519 14.668L0.605456 14.9024C0.828113 15.4844 1.30468 15.961 1.89452 16.1836L2.12108 16.2696L7.8203 16.2813C12.9531 16.2891 13.5469 16.2852 13.7383 16.2266C14.418 16.0313 14.9961 15.4766 15.2109 14.8047C15.2656 14.6368 15.2851 14.3946 15.3008 13.668L15.3242 12.7461L17.6094 13.9922C19.2695 14.9024 19.9414 15.25 20.0586 15.2618C20.207 15.2813 20.2383 15.2696 20.3633 15.1446L20.5 15.0079V10.0039V5.00004L20.3945 4.88286C20.3164 4.79692 20.2383 4.75395 20.1289 4.74223C19.9844 4.7227 19.8242 4.80473 17.6484 5.98832L15.3242 7.25786L15.3008 6.31645C15.2851 5.73442 15.2578 5.31254 15.2266 5.21489C15.0469 4.64457 14.6094 4.12895 14.1016 3.88676C13.6328 3.66411 13.8828 3.67192 7.86327 3.67582C3.52733 3.67973 2.27343 3.68754 2.11327 3.72661ZM13.7383 4.70707C14.0039 4.85551 14.2266 5.10551 14.3281 5.37895C14.4062 5.58989 14.4062 5.64067 14.3984 10.0508L14.3867 14.5118L14.2812 14.7071C14.1445 14.9727 13.9219 15.1836 13.6641 15.3086L13.4492 15.4102H7.90233H2.35546L2.09374 15.2813C1.79686 15.1368 1.62499 14.961 1.48046 14.6485L1.37889 14.4336V10C1.37889 5.81645 1.3828 5.55473 1.44921 5.38286C1.53514 5.1602 1.69921 4.94536 1.90233 4.79692C2.22655 4.56254 1.85155 4.57426 7.94139 4.58207L13.5273 4.58989L13.7383 4.70707ZM19.6406 10C19.6406 12.2344 19.6328 14.0625 19.625 14.0625C19.6133 14.0625 18.6367 13.5352 17.457 12.8868L15.3047 11.711V10V8.28911L17.4453 7.11723C18.6211 6.4727 19.5937 5.94536 19.6133 5.94145C19.6289 5.93754 19.6406 7.76567 19.6406 10Z" fill="#443E3E"/>
</g>
<defs>
<clipPath id="clip0_2601_2390">
<rect width="20" height="20" fill="white" transform="translate(0.5)"/>
</clipPath>
</defs>
</svg>
