<svg width="24" height="24" viewBox="0 0 24 24" fill="none" xmlns="http://www.w3.org/2000/svg">
<path d="M11.1849 0.070312C10.0646 0.351562 9.1599 1.27969 8.88334 2.42344C8.75678 2.95312 8.80365 3.75 8.98646 4.24687C9.33334 5.17969 10.0318 5.86406 10.9693 6.19687C11.2365 6.29062 11.363 6.30469 11.9771 6.30469C12.624 6.30469 12.7083 6.29531 13.0224 6.17812C13.2146 6.10781 13.4865 5.98125 13.6318 5.89687C13.974 5.69531 14.513 5.15625 14.7146 4.81406C15.3099 3.80156 15.3099 2.52656 14.7146 1.51406C14.513 1.17188 13.974 0.632812 13.6318 0.43125C13.1255 0.13125 12.7505 0.0328121 12.0708 0.0140624C11.649 0.00468731 11.3771 0.023437 11.1849 0.070312Z" fill="url(#paint0_linear_14_1856)"/>
<path d="M8.30217 7.125C8.10999 7.17187 7.77249 7.29844 7.55217 7.41094C7.22405 7.575 7.06467 7.69687 6.69905 8.0625C6.31467 8.44687 6.22092 8.56875 6.03811 8.95312C5.68186 9.68437 5.67249 9.75469 5.67249 11.8406C5.67249 13.5469 5.67717 13.6734 5.76155 13.8C5.80842 13.8703 5.91155 13.9734 5.98186 14.0203C6.11311 14.1047 6.31467 14.1094 12.0006 14.1094C17.6865 14.1094 17.8881 14.1047 18.0194 14.0203C18.0897 13.9734 18.1928 13.8703 18.2397 13.8C18.324 13.6734 18.3287 13.5469 18.3287 11.8687C18.3287 9.80156 18.31 9.66562 17.9631 8.95312C17.7803 8.56875 17.6865 8.44687 17.3022 8.0625C16.9365 7.69687 16.7772 7.575 16.4537 7.41562C15.6615 7.02187 15.76 7.03125 11.9819 7.03594C8.9303 7.03594 8.62092 7.04531 8.30217 7.125Z" fill="url(#paint1_linear_14_1856)"/>
<path d="M11.7193 14.9391C11.5552 15.0047 11.349 15.2672 10.7349 16.2188L10.0787 17.2266L8.85055 17.5547C7.4818 17.9203 7.37398 17.9766 7.27086 18.3656C7.17711 18.7031 7.24742 18.8344 8.10523 19.8984L8.90211 20.8875L8.83648 22.1438C8.77086 23.3625 8.77086 23.4141 8.85992 23.6063C8.97242 23.8688 9.18336 24 9.48336 24C9.65211 24 9.97555 23.8969 10.8146 23.5781C11.424 23.3484 11.9584 23.1563 12.0005 23.1563C12.0427 23.1563 12.5771 23.3484 13.1865 23.5781C14.0255 23.8969 14.349 24 14.5177 24C14.8177 24 15.0287 23.8688 15.1412 23.6063C15.2302 23.4141 15.2302 23.3625 15.1646 22.1438L15.099 20.8875L15.8959 19.8984C16.7537 18.8344 16.824 18.7031 16.7302 18.3656C16.6271 17.9766 16.5193 17.9203 15.1505 17.5547L13.9271 17.2266L13.2662 16.2188C12.9052 15.6609 12.549 15.1453 12.4693 15.0703C12.3521 14.9578 12.2818 14.9344 12.0615 14.9203C11.9115 14.9156 11.7568 14.9203 11.7193 14.9391Z" fill="url(#paint2_linear_14_1856)"/>
<path d="M3.00058 17.6577C2.8787 17.7187 2.71933 17.9155 2.38652 18.4171C2.13339 18.7874 1.9037 19.1062 1.87089 19.1249C1.83339 19.1437 1.50995 19.2421 1.14902 19.3359C0.413079 19.5327 0.309954 19.5796 0.145891 19.753C0.00526631 19.903 -0.0462962 20.353 0.0474538 20.5359C0.0802663 20.5968 0.319329 20.9062 0.577141 21.2249L1.0412 21.8015L1.01308 22.6546C0.980266 23.4609 0.984954 23.5171 1.07402 23.6624C1.13027 23.7468 1.23808 23.8546 1.32245 23.9062C1.58027 24.0655 1.83808 24.028 2.58808 23.7421C2.9537 23.6015 3.2912 23.4843 3.3287 23.4843C3.3662 23.4843 3.7037 23.6015 4.06933 23.7421C4.83808 24.0374 5.08652 24.0655 5.34902 23.8921C5.6537 23.6905 5.68652 23.5499 5.63964 22.6312L5.60214 21.8202L6.05214 21.2577C6.66152 20.4843 6.65683 20.4984 6.65683 20.2265C6.65683 19.964 6.54433 19.739 6.35214 19.6124C6.28183 19.5702 6.00527 19.4718 5.7287 19.3968C5.45214 19.3218 5.11464 19.2327 4.9787 19.1905L4.73495 19.1202L4.29433 18.4499C4.05058 18.0749 3.79745 17.7374 3.72714 17.6905C3.54433 17.5734 3.19745 17.5546 3.00058 17.6577Z" fill="url(#paint3_linear_14_1856)"/>
<path d="M20.3444 17.6577C20.2225 17.7187 20.0678 17.9109 19.749 18.3937C19.5147 18.7499 19.299 19.064 19.2756 19.0874C19.2475 19.1155 18.8959 19.228 18.4928 19.3359C18.0897 19.4484 17.71 19.5749 17.6444 19.6171C17.4569 19.739 17.3444 19.964 17.3444 20.2265C17.3444 20.4984 17.3397 20.4843 17.949 21.2577L18.399 21.8202L18.3615 22.6312C18.3147 23.5499 18.3475 23.6905 18.6522 23.8921C18.9147 24.0655 19.1584 24.0374 19.9365 23.7421C20.3069 23.6015 20.6397 23.4843 20.6772 23.4843C20.7147 23.4843 21.0475 23.6015 21.4131 23.7421C22.1631 24.028 22.4209 24.0655 22.6787 23.9062C22.7631 23.8546 22.8709 23.7468 22.9272 23.6624C23.0162 23.5171 23.0209 23.4609 22.9881 22.6546L22.96 21.8015L23.424 21.2249C23.6819 20.9062 23.9209 20.5968 23.9537 20.5359C24.0475 20.353 23.9959 19.903 23.8553 19.753C23.6912 19.5796 23.574 19.528 22.9459 19.3593C22.6365 19.2796 22.3178 19.1905 22.2334 19.1671C22.1115 19.1296 22.0037 18.9984 21.6381 18.4452C21.3944 18.0749 21.1365 17.7374 21.0709 17.6905C20.8881 17.5734 20.5412 17.5546 20.3444 17.6577Z" fill="url(#paint4_linear_14_1856)"/>
<defs>
<linearGradient id="paint0_linear_14_1856" x1="8.81213" y1="3.1582" x2="15.1611" y2="3.1582" gradientUnits="userSpaceOnUse">
<stop stop-color="#E81212"/>
<stop offset="1" stop-color="#FCCD05"/>
</linearGradient>
<linearGradient id="paint1_linear_14_1856" x1="5.67249" y1="10.5721" x2="18.3287" y2="10.5721" gradientUnits="userSpaceOnUse">
<stop stop-color="#E81212"/>
<stop offset="1" stop-color="#FCCD05"/>
</linearGradient>
<linearGradient id="paint2_linear_14_1856" x1="7.23926" y1="19.4593" x2="16.7618" y2="19.4593" gradientUnits="userSpaceOnUse">
<stop stop-color="#E81212"/>
<stop offset="1" stop-color="#FCCD05"/>
</linearGradient>
<linearGradient id="paint3_linear_14_1856" x1="2.47986e-08" y1="20.7951" x2="6.65683" y2="20.7951" gradientUnits="userSpaceOnUse">
<stop stop-color="#E81212"/>
<stop offset="1" stop-color="#FCCD05"/>
</linearGradient>
<linearGradient id="paint4_linear_14_1856" x1="17.3444" y1="20.7951" x2="24.0012" y2="20.7951" gradientUnits="userSpaceOnUse">
<stop stop-color="#E81212"/>
<stop offset="1" stop-color="#FCCD05"/>
</linearGradient>
</defs>
</svg>
