<svg width="18" height="21" viewBox="0 0 18 21" fill="none" xmlns="http://www.w3.org/2000/svg">
<path d="M8.53125 0.153826C6.75469 1.39601 5.12813 2.17883 3.44531 2.61008C2.60625 2.8257 2.1 2.90539 1.22813 2.96164C0.43125 3.0132 0.3 3.05539 0.107813 3.33664L0 3.49601L0.01875 7.83664C0.0375 12.5804 0.0328125 12.4351 0.332813 13.6023C1.02188 16.2835 3 18.2288 7.03594 20.1976C8.96719 21.1398 8.94844 21.1351 9.73594 20.7788C13.4063 19.1335 15.5297 17.6148 16.7016 15.8054C17.3063 14.8726 17.6297 14.0195 17.8781 12.6882C17.9672 12.196 17.9719 11.9616 17.9906 7.83664L18.0094 3.49601L17.9016 3.33664C17.7094 3.05539 17.5781 3.0132 16.7812 2.96164C15.4734 2.88195 14.4328 2.64758 13.1063 2.13195C12.0422 1.71945 10.7484 1.03976 9.89531 0.439764C9.25781 -0.00554848 9.29063 0.0085125 9.00469 0.0085125C8.78438 0.0085125 8.70469 0.03195 8.53125 0.153826ZM10.0312 4.63039C12.5156 5.07101 14.4516 7.01633 14.8875 9.51008C14.9766 10.0257 14.9766 10.9913 14.8875 11.507C14.6016 13.157 13.6641 14.582 12.2625 15.5007C11.2594 16.157 10.2188 16.4663 9.00469 16.4663C7.80469 16.4663 6.72656 16.1476 5.75625 15.5101C4.47188 14.6616 3.62344 13.471 3.20156 11.9241C3.08906 11.5023 3.07969 11.3991 3.07969 10.5085C3.07969 9.62258 3.08906 9.51476 3.20156 9.10226C3.52031 7.93039 3.99844 7.08664 4.79063 6.29445C6.17813 4.90695 8.10938 4.29289 10.0312 4.63039Z" fill="url(#paint0_linear_14_1813)"/>
<path d="M11.1843 8.23515C11.1609 8.24452 11.0765 8.26327 10.9968 8.28202C10.8937 8.30546 10.5 8.6664 9.55309 9.60859L8.25465 10.907L7.72496 10.382C7.43902 10.0961 7.1484 9.83827 7.08746 9.80546C6.8484 9.68359 6.44527 9.74452 6.22027 9.9414C5.99996 10.1383 5.92027 10.5883 6.06559 10.8648C6.10777 10.9398 6.52496 11.3851 6.9984 11.8539C7.94996 12.7961 8.05309 12.8617 8.45621 12.7586C8.62965 12.7117 8.85934 12.5008 10.2609 11.1039C11.1468 10.2226 11.9015 9.43984 11.9437 9.36484C12.089 9.08827 12.0093 8.63827 11.789 8.4414C11.6296 8.30078 11.3156 8.19765 11.1843 8.23515Z" fill="url(#paint1_linear_14_1813)"/>
<defs>
<linearGradient id="paint0_linear_14_1813" x1="6.70901e-08" y1="10.5042" x2="18.0094" y2="10.5042" gradientUnits="userSpaceOnUse">
<stop stop-color="#E81212"/>
<stop offset="1" stop-color="#FCCD05"/>
</linearGradient>
<linearGradient id="paint1_linear_14_1813" x1="5.99207" y1="10.511" x2="12.0172" y2="10.511" gradientUnits="userSpaceOnUse">
<stop stop-color="#E81212"/>
<stop offset="1" stop-color="#FCCD05"/>
</linearGradient>
</defs>
</svg>
