<svg width="24" height="23" viewBox="0 0 24 23" fill="none" xmlns="http://www.w3.org/2000/svg">
<path d="M11.1522 0.387606C7.25215 0.781355 4.1209 3.75792 3.53496 7.62979C3.49746 7.88292 3.46465 8.11729 3.46465 8.14542C3.46465 8.17823 3.30527 8.20636 3.02871 8.22042C1.73965 8.29073 0.609962 9.15323 0.1459 10.4235L0.0193373 10.7657L0.00527484 12.3689C-0.0134752 14.2017 0.000587332 14.2814 0.342775 14.9845C0.792775 15.8985 1.62715 16.5267 2.64434 16.7189C3.47403 16.8735 4.34121 16.8454 4.65996 16.6485C4.97871 16.4517 4.96465 16.6298 4.96465 12.561C4.96465 8.21573 4.99277 7.80792 5.3209 6.78136C6.06621 4.46104 7.99277 2.67042 10.3506 2.09854C13.224 1.40011 16.1725 2.56729 17.8506 5.06573C18.1084 5.44542 18.5162 6.29854 18.6709 6.78136C18.999 7.80792 19.0272 8.21573 19.0272 12.5704C19.0272 16.7423 19.0037 16.4704 19.4068 16.686C19.6084 16.7939 19.6365 16.7985 20.4803 16.7751C21.2537 16.7564 21.385 16.7423 21.7225 16.6345C22.2475 16.461 22.6506 16.2126 23.0631 15.8048C23.349 15.5189 23.4615 15.3642 23.6397 15.0079C23.9959 14.2814 24.0053 14.2064 23.9865 12.3689L23.9725 10.7657L23.8459 10.4235C23.3865 9.15792 22.2475 8.29073 20.9631 8.22042C20.6865 8.20636 20.5272 8.17823 20.5272 8.14542C20.5272 7.96261 20.3678 7.08604 20.26 6.69229C19.2006 2.66104 15.31 -0.029583 11.1522 0.387606Z" fill="url(#paint0_linear_14_1708)"/>
<path d="M3.15526 17.7734C3.26307 18.4437 3.71307 19.4187 4.20057 20.0234C5.2037 21.2703 6.68026 21.9453 8.40995 21.9453H8.78495V21.5047V21.0687L8.17557 21.0406C7.23339 20.9937 6.5912 20.7969 5.8787 20.3281C4.98807 19.7469 4.36932 18.8703 4.0787 17.7969L4.03182 17.6094L3.57714 17.6L3.12714 17.5953L3.15526 17.7734Z" fill="url(#paint1_linear_14_1708)"/>
<path d="M10.585 20.0422C10.1443 20.2016 9.81154 20.5297 9.64747 20.9562C9.56779 21.1625 9.55372 21.2891 9.56779 21.5703C9.60529 22.1656 9.91466 22.625 10.449 22.8781L10.7068 23H11.9959H13.285L13.5428 22.8781C14.0772 22.625 14.3865 22.1656 14.424 21.5703C14.4568 20.9562 14.1709 20.4406 13.6318 20.1406L13.3787 20L12.0662 19.9906C11.0725 19.9812 10.7115 19.9906 10.585 20.0422Z" fill="url(#paint2_linear_14_1708)"/>
<defs>
<linearGradient id="paint0_linear_14_1708" x1="8.93775e-08" y1="8.58158" x2="23.9921" y2="8.58158" gradientUnits="userSpaceOnUse">
<stop stop-color="#E81212"/>
<stop offset="1" stop-color="#FCCD05"/>
</linearGradient>
<linearGradient id="paint1_linear_14_1708" x1="3.12714" y1="19.7703" x2="8.78495" y2="19.7703" gradientUnits="userSpaceOnUse">
<stop stop-color="#E81212"/>
<stop offset="1" stop-color="#FCCD05"/>
</linearGradient>
<linearGradient id="paint2_linear_14_1708" x1="9.56299" y1="21.4937" x2="14.4266" y2="21.4937" gradientUnits="userSpaceOnUse">
<stop stop-color="#E81212"/>
<stop offset="1" stop-color="#FCCD05"/>
</linearGradient>
</defs>
</svg>
