<svg width="20" height="28" viewBox="0 0 20 28" fill="none" xmlns="http://www.w3.org/2000/svg">
<path d="M8.32395 0.465192C4.17498 1.20973 1.02631 4.26178 0.162421 8.37665C0.00896568 9.10982 -0.0478695 10.9399 0.0487503 11.9061C0.361344 14.8672 1.56057 17.726 3.74304 20.6985C4.53304 21.7727 5.10708 22.4661 7.38617 25.1032C8.09092 25.916 8.8241 26.7799 9.02302 27.0243C9.43792 27.5301 9.60274 27.6324 10.0006 27.6324C10.3984 27.6324 10.5633 27.5301 10.9782 27.0243C11.1771 26.7799 11.9216 25.9046 12.6434 25.0748C15.0816 22.2615 16.0649 21.0338 16.9743 19.6755C18.702 17.0838 19.6739 14.5376 19.9524 11.9061C20.049 10.9399 19.9922 9.10414 19.8388 8.3937C18.9692 4.36977 16.0706 1.43707 12.0751 0.539078C11.5408 0.419724 11.268 0.39699 10.1995 0.374256C9.13669 0.357206 8.8582 0.368573 8.32395 0.465192ZM10.7679 2.24982C11.6886 2.30665 12.9674 2.68745 13.8654 3.18191C14.5531 3.55702 15.1385 4.00602 15.7694 4.63689C16.9117 5.78496 17.6335 7.11491 17.9859 8.70629C18.1337 9.35989 18.1621 11.1104 18.0484 12.0027C17.6449 15.0661 16.2581 17.834 13.3993 21.2782C12.5354 22.324 10.0404 25.1885 10.0006 25.1885C9.9608 25.1885 7.46574 22.324 6.60184 21.2782C3.74304 17.834 2.33921 15.032 1.95273 11.9914C1.81064 10.8717 1.86179 9.29737 2.0664 8.47895C2.45856 6.92735 3.1349 5.73381 4.25455 4.61416C5.39694 3.47177 6.60184 2.79543 8.15344 2.42032C8.7218 2.28392 9.77324 2.17025 10.1143 2.20435C10.1938 2.21572 10.4894 2.23277 10.7679 2.24982Z" fill="#E81212"/>
<path d="M8.86388 4.98358C6.83487 5.43827 5.28327 6.89893 4.70355 8.91089C4.58988 9.30306 4.57283 9.48493 4.57283 10.3545C4.57283 11.2241 4.58988 11.406 4.70355 11.7981C5.24917 13.685 6.65868 15.1002 8.52855 15.6459C9.17079 15.8277 10.4723 15.8618 11.1771 15.7084C13.172 15.2651 14.7179 13.7987 15.2976 11.7981C15.4113 11.406 15.4283 11.2241 15.4283 10.3545C15.4283 9.48493 15.4113 9.30306 15.2976 8.91089C14.752 7.02397 13.3482 5.61446 11.4726 5.06315C10.9213 4.90402 9.43223 4.85855 8.86388 4.98358ZM11.1373 6.9444C12.1831 7.29678 13.0754 8.18909 13.4164 9.22349C13.53 9.58155 13.5528 9.75205 13.5528 10.3829C13.5528 11.0365 13.5357 11.1672 13.405 11.531C12.3536 14.4125 8.49445 14.8047 6.90875 12.1846C6.54501 11.5821 6.44839 11.2127 6.44839 10.3829C6.44839 9.75205 6.47112 9.58155 6.58479 9.22917C7.19861 7.35929 9.2731 6.31921 11.1373 6.9444Z" fill="#E81212"/>
<path fill-rule="evenodd" clip-rule="evenodd" d="M10.7679 2.24982C11.6886 2.30665 12.9674 2.68745 13.8654 3.18191C14.5531 3.55702 15.1385 4.00602 15.7694 4.63689C16.9117 5.78496 17.6335 7.11491 17.9859 8.70629C18.1337 9.35989 18.1621 11.1104 18.0484 12.0027C17.6449 15.0661 16.2581 17.834 13.3993 21.2782C12.5354 22.324 10.0404 25.1885 10.0006 25.1885C9.9608 25.1885 7.46574 22.324 6.60184 21.2782C3.74304 17.834 2.33921 15.032 1.95273 11.9914C1.81064 10.8717 1.86179 9.29737 2.0664 8.47895C2.45856 6.92735 3.1349 5.73381 4.25455 4.61416C5.39694 3.47177 6.60184 2.79543 8.15344 2.42032C8.7218 2.28392 9.77324 2.17025 10.1143 2.20435C10.1938 2.21572 10.4894 2.23277 10.7679 2.24982ZM4.70355 8.91089C5.28327 6.89893 6.83487 5.43827 8.86388 4.98358C9.43223 4.85855 10.9213 4.90402 11.4726 5.06315C13.3482 5.61446 14.752 7.02397 15.2976 8.91089C15.4113 9.30306 15.4283 9.48493 15.4283 10.3545C15.4283 11.2241 15.4113 11.406 15.2976 11.7981C14.7179 13.7987 13.172 15.2651 11.1771 15.7084C10.4723 15.8618 9.17079 15.8277 8.52855 15.6459C6.65868 15.1002 5.24917 13.685 4.70355 11.7981C4.58988 11.406 4.57283 11.2241 4.57283 10.3545C4.57283 9.48493 4.58988 9.30306 4.70355 8.91089Z" fill="#E81212"/>
</svg>
