<svg width="24" height="24" viewBox="0 0 24 24" fill="none" xmlns="http://www.w3.org/2000/svg">
<path d="M23.1499 18.6864L23.0376 18.3446C22.7739 17.5585 21.9048 16.7382 21.104 16.5184L18.1475 15.7103C17.3467 15.4931 16.2041 15.786 15.6159 16.3744L14.5465 17.4438C10.6598 16.3915 7.61046 13.3422 6.56062 9.45548L7.62999 8.3861C8.21593 7.80016 8.5089 6.65758 8.29163 5.85438L7.48585 2.89782C7.26859 2.09704 6.44335 1.2279 5.65726 0.964225L5.3203 0.851881C4.53171 0.588209 3.40624 0.854303 2.8203 1.44274L1.21874 3.0443C0.933117 3.32751 0.749992 4.14298 0.749992 4.14298C0.696242 9.22602 2.68851 14.121 6.28226 17.7172C9.86624 21.3012 14.7442 23.291 19.8101 23.247C19.8369 23.247 20.6744 23.0688 20.96 22.7831L22.5616 21.1815C23.1475 20.598 23.4111 19.4725 23.1499 18.6864Z" fill="#E81212"/>
</svg>
