<svg width="14" height="14" viewBox="0 0 14 14" fill="none" xmlns="http://www.w3.org/2000/svg">
<path d="M9.60762 0.179688H4.39853C2.07489 0.179688 0.187622 2.06696 0.187622 4.3906V9.59969C0.187622 11.9233 2.07489 13.8106 4.39853 13.8106H9.60762C11.9313 13.8106 13.8185 11.9233 13.8185 9.59969V4.3906C13.8185 2.06696 11.9313 0.179688 9.60762 0.179688ZM12.2967 9.60514C12.2967 11.0888 11.0913 12.2997 9.60217 12.2997H4.39308C2.90944 12.2997 1.69853 11.0942 1.69853 9.60514V4.39605C1.69853 2.91242 2.90398 1.70151 4.39308 1.70151H9.60217C11.0858 1.70151 12.2967 2.90696 12.2967 4.39605V9.60514Z" fill="#E81212"/>
<path d="M7.00059 3.5125C5.08059 3.5125 3.51514 5.07795 3.51514 6.99795C3.51514 8.91795 5.08059 10.4834 7.00059 10.4834C8.92059 10.4834 10.486 8.91795 10.486 6.99795C10.486 5.07795 8.92059 3.5125 7.00059 3.5125ZM7.00059 9.11432C5.83332 9.11432 4.88423 8.16523 4.88423 6.99795C4.88423 5.83068 5.83332 4.88159 7.00059 4.88159C8.16786 4.88159 9.11695 5.83068 9.11695 6.99795C9.11695 8.16523 8.16786 9.11432 7.00059 9.11432Z" fill="#E81212"/>
<path d="M10.7512 3.89205C11.0723 3.84 11.2904 3.53748 11.2384 3.21636C11.1863 2.89524 10.8838 2.67713 10.5627 2.72918C10.2416 2.78124 10.0235 3.08375 10.0755 3.40487C10.1276 3.72599 10.4301 3.94411 10.7512 3.89205Z" fill="#E81212"/>
</svg>
