<svg width="16" height="10" viewBox="0 0 16 10" fill="none" xmlns="http://www.w3.org/2000/svg">
<path d="M15.6551 8.33698C15.6551 8.27945 15.593 8.27945 15.593 8.22192C15.3448 7.76164 14.7861 7.1863 14.0413 6.55343C13.6689 6.26576 13.4827 6.03561 13.3586 5.92055C13.1724 5.69041 13.1724 5.51781 13.2344 5.28767C13.2965 5.11507 13.5448 4.82739 13.9792 4.30958C14.2275 4.02191 14.3517 3.84932 14.5379 3.67671C15.4689 2.52603 15.9034 1.77808 15.7792 1.43287L15.7172 1.37534C15.6551 1.31781 15.593 1.26028 15.4689 1.26028C15.3448 1.20274 15.1586 1.20274 14.9724 1.26028H12.6138C12.5517 1.26028 12.5517 1.26028 12.4275 1.26028C12.3655 1.26028 12.3034 1.26028 12.3034 1.26028H12.2413H12.1793L12.1172 1.3178C12.0551 1.37534 12.0551 1.37534 12.0551 1.43287C11.8068 2.06575 11.4965 2.58356 11.1862 3.1589C11 3.44657 10.8138 3.73425 10.6275 3.96438C10.4413 4.19452 10.3172 4.36712 10.1931 4.48219C10.0689 4.59726 9.94478 4.65479 9.88272 4.76986C9.82065 4.82739 9.69652 4.88493 9.69652 4.8274C9.63445 4.8274 9.57237 4.82739 9.57237 4.76986C9.5103 4.71233 9.44824 4.65479 9.38617 4.59726C9.32411 4.53972 9.3241 4.42465 9.26203 4.30958C9.26203 4.19452 9.26203 4.07945 9.26203 4.02191C9.26203 3.96438 9.26203 3.79178 9.26203 3.67671C9.26203 3.50411 9.26203 3.38904 9.26203 3.3315C9.26203 3.1589 9.26203 2.92877 9.26203 2.69863C9.26203 2.4685 9.26203 2.29589 9.26203 2.18082C9.26203 2.06575 9.26203 1.89315 9.26203 1.77808C9.26203 1.60548 9.26203 1.49041 9.26203 1.43287C9.26203 1.37534 9.19998 1.26027 9.19998 1.20274C9.13791 1.1452 9.07583 1.08767 9.01376 1.03013C8.95169 0.972599 8.82756 0.9726 8.76549 0.915066C8.45514 0.857532 8.08274 0.799999 7.64826 0.799999C6.65516 0.799999 5.9724 0.857535 5.72413 0.972604C5.59999 1.03014 5.47585 1.08767 5.41378 1.20274C5.28965 1.31781 5.28964 1.37534 5.35171 1.37534C5.66206 1.43288 5.91033 1.54794 6.03447 1.72054L6.09654 1.83562C6.15861 1.89315 6.1586 2.00822 6.22067 2.18082C6.28274 2.35342 6.28274 2.52602 6.28274 2.75616C6.28274 3.10137 6.28274 3.44658 6.28274 3.67671C6.28274 3.96438 6.22067 4.13698 6.22067 4.30958C6.22067 4.48219 6.15861 4.59726 6.09654 4.65479C6.03447 4.76986 6.03447 4.8274 5.9724 4.8274C5.9724 4.8274 5.97239 4.88493 5.91033 4.88493C5.84826 4.88493 5.78619 4.94247 5.66206 4.94247C5.59999 4.94247 5.47585 4.88493 5.41378 4.8274C5.28965 4.76986 5.16551 4.6548 5.10344 4.53973C4.9793 4.42466 4.85516 4.25205 4.73103 4.02191C4.60689 3.79178 4.42067 3.56164 4.29654 3.21644L4.17241 2.9863C4.11034 2.87123 3.98621 2.64109 3.86207 2.35342C3.73793 2.06575 3.61379 1.83562 3.48965 1.54795C3.42758 1.43288 3.36552 1.37534 3.30345 1.3178H3.24138C3.24138 1.3178 3.17931 1.26028 3.11724 1.26028C3.05517 1.26028 2.99311 1.20274 2.93104 1.20274H0.696563C0.448289 1.20274 0.324153 1.26027 0.262085 1.3178L0.200012 1.37534C0.200012 1.37534 0.200012 1.43287 0.200012 1.49041C0.200012 1.54794 0.200016 1.60547 0.262085 1.72054C0.572428 2.41095 0.944838 3.10137 1.31725 3.79178C1.68966 4.42466 2.06208 5 2.31035 5.40274C2.6207 5.80548 2.86897 6.20822 3.17931 6.55343C3.48965 6.89863 3.67585 7.12877 3.73792 7.24384C3.86206 7.35891 3.92413 7.41644 3.98619 7.47397L4.17241 7.64657C4.29655 7.76164 4.48275 7.93425 4.73103 8.10685C4.9793 8.27945 5.28964 8.45205 5.59998 8.62466C5.91033 8.79726 6.28275 8.91233 6.65516 9.0274C7.08964 9.14247 7.46205 9.2 7.83446 9.14247H8.76549C8.95169 9.14247 9.07584 9.08493 9.19998 8.96986L9.26203 8.91233C9.26203 8.85479 9.3241 8.85479 9.3241 8.79726C9.3241 8.73973 9.3241 8.6822 9.3241 8.56713C9.3241 8.33699 9.32411 8.16439 9.38617 7.99178C9.44824 7.81918 9.44825 7.70411 9.51032 7.58905C9.57239 7.47398 9.63445 7.41644 9.69652 7.3589C9.75859 7.30137 9.82066 7.24384 9.82066 7.24384H9.88272C10.0069 7.1863 10.1931 7.24383 10.3172 7.3589C10.5034 7.47397 10.6896 7.64658 10.8137 7.81918C10.9379 7.99178 11.1241 8.16438 11.3724 8.39452C11.6207 8.62466 11.8069 8.79726 11.931 8.8548L12.1172 8.96986C12.2413 9.0274 12.3655 9.08494 12.5517 9.14247C12.7379 9.2 12.862 9.2 12.9861 9.2L15.0965 9.14247C15.2827 9.14247 15.4689 9.08494 15.593 9.0274C15.7172 8.96987 15.7792 8.91233 15.7792 8.79726C15.7792 8.73973 15.7792 8.62466 15.7792 8.56713C15.6551 8.45206 15.6551 8.39452 15.6551 8.33698Z" fill="#E81212"/>
</svg>
