<svg width="16" height="11" viewBox="0 0 16 11" fill="none" xmlns="http://www.w3.org/2000/svg">
<path d="M15.2 4.11515C15.2 3.80606 15.1474 3.44545 15.1474 3.03333C15.0949 2.62121 15.0423 2.20909 14.9898 1.84848C14.8847 1.43636 14.727 1.12727 14.4117 0.869699C14.1489 0.612123 13.781 0.457573 13.4131 0.406058C12.2044 0.251513 10.4175 0.200001 8 0.200001C5.58248 0.200001 3.74305 0.251513 2.58685 0.406058C2.21896 0.457573 1.85108 0.612123 1.58831 0.869699C1.32554 1.12727 1.11531 1.43636 1.0102 1.84848C0.905094 2.20909 0.852546 2.5697 0.852546 3.03333C0.799991 3.44545 0.799988 3.80606 0.799988 4.11515C0.799988 4.42424 0.799988 4.78485 0.799988 5.3C0.799988 5.81515 0.799988 6.22727 0.799988 6.48485C0.799988 6.79394 0.852546 7.15455 0.852546 7.56667C0.905101 7.97879 0.957649 8.3909 1.0102 8.75151C1.11531 9.16363 1.27298 9.47273 1.58831 9.7303C1.85108 9.98788 2.21896 10.1424 2.58685 10.1939C3.79561 10.3485 5.58248 10.4 8 10.4C10.4175 10.4 12.2569 10.3485 13.4131 10.1939C13.781 10.1424 14.1489 9.98788 14.4117 9.7303C14.6744 9.47273 14.8847 9.16363 14.9898 8.75151C15.0949 8.3909 15.1474 8.0303 15.1474 7.56667C15.2 7.15455 15.2 6.79394 15.2 6.48485C15.2 6.17576 15.2 5.81515 15.2 5.3C15.2 4.78485 15.2 4.37272 15.2 4.11515ZM10.7854 5.71212L6.63357 8.23636C6.58101 8.28787 6.4759 8.3394 6.3708 8.3394C6.26569 8.3394 6.21313 8.33939 6.10802 8.28788C5.95036 8.18485 5.84525 8.0303 5.84525 7.82424V2.72424C5.84525 2.51818 5.95036 2.36364 6.10802 2.26061C6.26569 2.15758 6.4759 2.15758 6.63357 2.26061L10.7854 4.78485C10.9431 4.88788 11.0482 5.04242 11.0482 5.19697C11.0482 5.35151 10.9431 5.60909 10.7854 5.71212Z" fill="#E81212"/>
</svg>
