<svg width="7" height="14" viewBox="0 0 7 14" fill="none" xmlns="http://www.w3.org/2000/svg">
<path d="M0.339159 10.3336C0.451519 10.1616 0.641127 10.0773 0.84829 10.1089C1.00981 10.1335 1.04492 10.1651 2.05616 11.1728L3.10251 12.2121L3.10954 6.2746C3.12007 0.33708 3.12007 0.333569 3.19381 0.238765C3.32372 0.0632025 3.43959 0 3.6292 0C3.81881 0 3.93468 0.0632025 4.0646 0.238765C4.13833 0.333569 4.13833 0.33708 4.14887 6.2746L4.15589 12.2121L5.20224 11.1728C6.21348 10.1651 6.24859 10.1335 6.41011 10.1089C6.72612 10.0597 7 10.2915 7 10.6075C7 10.6918 6.98244 10.7971 6.96138 10.8392C6.91924 10.9165 4.05757 13.8238 3.93468 13.9151C3.82583 13.9923 3.62569 14.0239 3.47822 13.9853C3.36937 13.9572 3.09198 13.6939 1.84549 12.4404C1.02034 11.6082 0.328625 10.8919 0.304047 10.8533C0.23031 10.7234 0.247867 10.467 0.339159 10.3336Z" fill="#443E3E"/>
</svg>
