<svg width="14" height="7" viewBox="0 0 14 7" fill="none" xmlns="http://www.w3.org/2000/svg">
<path d="M3.66639 0.339159C3.83844 0.451519 3.92271 0.641127 3.89111 0.84829C3.86653 1.00981 3.83493 1.04492 2.8272 2.05616L1.78787 3.10251L7.7254 3.10954C13.6629 3.12007 13.6664 3.12007 13.7612 3.19381C13.9368 3.32372 14 3.43959 14 3.6292C14 3.81881 13.9368 3.93468 13.7612 4.0646C13.6664 4.13833 13.6629 4.13833 7.7254 4.14887L1.78787 4.15589L2.8272 5.20224C3.83493 6.21348 3.86653 6.24859 3.89111 6.41011C3.94027 6.72612 3.70853 7 3.39252 7C3.30824 7 3.20291 6.98244 3.16077 6.96138C3.08352 6.91924 0.17621 4.05757 0.084918 3.93468C0.0076704 3.82583 -0.0239305 3.62569 0.0146933 3.47822C0.0427828 3.36937 0.306127 3.09198 1.55964 1.84549C2.39181 1.02034 3.1081 0.328625 3.14673 0.304047C3.27664 0.23031 3.53296 0.247867 3.66639 0.339159Z" fill="#443E3E"/>
</svg>
