<svg width="21" height="19" fill="none" xmlns="http://www.w3.org/2000/svg"><path d="M17.025 13.548H7.493a.427.427 0 0 1-.419-.339L4.654 1.761H.549V.906H5a.428.428 0 0 1 .418.34L7.84 12.692h9.186a1.426 1.426 0 0 0 1.39-1.086l1.649-6.675a.399.399 0 0 0-.387-.493H6.094l-.181-.855h13.763a1.253 1.253 0 0 1 1.218 1.554l-1.65 6.674a2.28 2.28 0 0 1-2.219 1.736zM9.942 18.094a1.781 1.781 0 1 1 0-3.562 1.781 1.781 0 0 1 0 3.562zm0-2.708a.926.926 0 1 0 0 1.852.926.926 0 0 0 0-1.852zM16.057 18.094a1.781 1.781 0 1 1-.002-3.563 1.781 1.781 0 0 1 .002 3.563zm0-2.708a.926.926 0 1 0-.002 1.851.926.926 0 0 0 .002-1.85z" fill="#443E3E" stroke="#443E3E" stroke-width=".1"/></svg>