<svg width="21" height="19" viewBox="0 0 21 19" fill="none" xmlns="http://www.w3.org/2000/svg">
<path d="M17.025 13.548H7.49273C7.39469 13.5481 7.29963 13.5144 7.22347 13.4527C7.1473 13.3909 7.09466 13.3049 7.07437 13.209L4.6538 1.76135H0.549316V0.90625H5.00011C5.09811 0.906283 5.19312 0.939982 5.26924 1.0017C5.34536 1.06342 5.39797 1.14942 5.41826 1.2453L7.83926 12.6929H17.025C17.3448 12.6938 17.6557 12.5871 17.9076 12.3901C18.1596 12.1931 18.3381 11.9171 18.4145 11.6065L20.064 4.93249C20.0784 4.87383 20.0794 4.81266 20.0667 4.7536C20.054 4.69453 20.0281 4.63912 19.9909 4.59155C19.9536 4.54398 19.9061 4.50549 19.8518 4.47901C19.7975 4.45252 19.7379 4.43873 19.6775 4.43867L6.0936 4.43867L5.91276 3.58357L19.6758 3.58357C19.8661 3.5833 20.054 3.62638 20.2252 3.70956C20.3964 3.79273 20.5464 3.9138 20.6639 4.06359C20.7813 4.21339 20.8631 4.38796 20.903 4.57407C20.943 4.76018 20.94 4.95293 20.8943 5.13771L19.2446 11.8116C19.1227 12.3079 18.8377 12.7489 18.4352 13.0638C18.0327 13.3787 17.536 13.5492 17.025 13.548Z" fill="#443E3E" stroke="#443E3E" stroke-width="0.1"/>
<path d="M9.94204 18.0937C9.5897 18.0937 9.24528 17.9893 8.95233 17.7935C8.65937 17.5978 8.43105 17.3195 8.29623 16.994C8.1614 16.6685 8.12614 16.3103 8.19489 15.9647C8.26364 15.6192 8.43333 15.3018 8.68248 15.0527C8.93163 14.8035 9.24907 14.6339 9.59464 14.5652C9.94021 14.4965 10.2984 14.5318 10.6239 14.6666C10.9494 14.8015 11.2276 15.0299 11.4233 15.3228C11.619 15.6158 11.7235 15.9602 11.7234 16.3126C11.7229 16.7848 11.535 17.2376 11.201 17.5715C10.8671 17.9054 10.4143 18.0932 9.94204 18.0937V18.0937ZM9.94204 15.3861C9.75884 15.3861 9.57976 15.4404 9.42744 15.5422C9.27512 15.6439 9.15639 15.7886 9.08628 15.9578C9.01616 16.1271 8.99781 16.3133 9.03353 16.493C9.06925 16.6727 9.15745 16.8377 9.28698 16.9673C9.4165 17.0968 9.58153 17.1851 9.7612 17.2208C9.94086 17.2566 10.1271 17.2383 10.2964 17.1682C10.4656 17.0981 10.6103 16.9794 10.7121 16.8271C10.8139 16.6748 10.8683 16.4958 10.8683 16.3126C10.868 16.067 10.7704 15.8316 10.5967 15.6579C10.4231 15.4843 10.1876 15.3866 9.94204 15.3863V15.3861Z" fill="#443E3E" stroke="#443E3E" stroke-width="0.1"/>
<path d="M16.0569 18.0938C15.7045 18.0939 15.36 17.9896 15.067 17.7939C14.7739 17.5983 14.5454 17.3201 14.4105 16.9946C14.2755 16.6691 14.2401 16.3109 14.3088 15.9653C14.3775 15.6197 14.5471 15.3022 14.7962 15.053C15.0453 14.8038 15.3627 14.634 15.7083 14.5652C16.0539 14.4965 16.4121 14.5317 16.7377 14.6666C17.0632 14.8014 17.3415 15.0298 17.5373 15.3227C17.733 15.6157 17.8375 15.9602 17.8374 16.3126C17.8369 16.7847 17.6491 17.2373 17.3153 17.5712C16.9816 17.9051 16.529 18.093 16.0569 18.0938V18.0938ZM16.0569 15.3861C15.8737 15.3859 15.6945 15.4401 15.5421 15.5418C15.3896 15.6434 15.2708 15.788 15.2005 15.9573C15.1303 16.1265 15.1118 16.3127 15.1474 16.4925C15.1831 16.6722 15.2712 16.8373 15.4007 16.967C15.5302 17.0966 15.6952 17.1849 15.8749 17.2208C16.0546 17.2566 16.2409 17.2383 16.4102 17.1683C16.5795 17.0982 16.7242 16.9796 16.8261 16.8272C16.9279 16.6749 16.9823 16.4958 16.9823 16.3126C16.982 16.0672 16.8845 15.8318 16.711 15.6582C16.5375 15.4846 16.3023 15.3868 16.0569 15.3863V15.3861Z" fill="#443E3E" stroke="#443E3E" stroke-width="0.1"/>
</svg>
