<svg width="19" height="17" fill="none" xmlns="http://www.w3.org/2000/svg"><path d="M4.418.096c-.746.13-1.648.52-2.23.96C1.2 1.803.467 2.96.162 4.233 0 4.93-.049 5.987.055 6.662c.27 1.766 1.324 3.443 3.376 5.372.76.716 1.29 1.183 3.45 3.042 1.328 1.146 1.996 1.695 2.137 1.762.29.141.675.141.964.004.279-.137 4.233-3.536 5.572-4.793 2.052-1.926 3.12-3.621 3.391-5.387.104-.675.056-1.732-.107-2.43-.305-1.272-1.04-2.43-2.026-3.175-.597-.453-1.491-.835-2.267-.961-.419-.07-1.276-.07-1.691 0-1.15.2-2.23.838-3.042 1.806-.16.19-.297.345-.312.345-.015 0-.152-.155-.312-.345C8.376.934 7.296.296 6.146.096c-.4-.067-1.328-.067-1.728 0zm1.854 1.202c.36.104.961.4 1.243.612.349.263.816.75 1.069 1.109.126.182.274.397.33.475a.73.73 0 0 0 1.172 0c.056-.078.204-.293.33-.475.253-.36.72-.846 1.069-1.11a4.92 4.92 0 0 1 1.261-.615c.26-.074.378-.085.965-.085.73.003.975.048 1.54.274 1.25.508 2.184 1.7 2.507 3.194.097.45.1 1.629.004 2.078-.353 1.64-1.462 3.112-4.096 5.446-1.369 1.213-4.147 3.569-4.188 3.554-.056-.022-3.272-2.779-4.152-3.562-2.64-2.344-3.732-3.798-4.088-5.438-.096-.449-.093-1.629.004-2.078.375-1.725 1.517-2.986 3.06-3.372.412-.107.45-.107 1.099-.096.474.007.649.026.871.089z" fill="#443E3E"/></svg>