<svg width="17" height="19" fill="none" xmlns="http://www.w3.org/2000/svg"><path d="M6.873.72H6.84c-.278 0-.437 0-.574.006A6.271 6.271 0 0 0 .274 6.717a14.22 14.22 0 0 0-.005.574V7.327c0 .279 0 .437.005.574a6.272 6.272 0 0 0 5.992 5.992c.137.006.296.006.574.006H6.876c.279 0 .437 0 .574-.006A6.271 6.271 0 0 0 13.442 7.9c.006-.137.006-.295.006-.574V7.291c0-.278 0-.437-.006-.574A6.271 6.271 0 0 0 7.45.727C7.313.72 7.155.72 6.876.72h-.003zm-.559 1.095c.11-.005.243-.005.544-.005.301 0 .434 0 .544.005a5.18 5.18 0 0 1 4.95 4.95c.005.11.005.243.005.544 0 .301 0 .434-.005.544a5.18 5.18 0 0 1-4.95 4.95c-.11.005-.243.005-.544.005-.301 0-.434 0-.544-.005a5.18 5.18 0 0 1-4.95-4.95 14.06 14.06 0 0 1-.005-.544c0-.301 0-.434.005-.544a5.18 5.18 0 0 1 4.95-4.95z" fill="#443E3E" stroke="#443E3E" stroke-width=".2"/><path d="M11.828 12.537a2.387 2.387 0 0 0-.681-.5.857.857 0 0 0-.303-.083.327.327 0 0 0-.256.087.339.339 0 0 0-.086.26c.005.095.035.2.082.308.094.216.266.462.492.691l4.08 4.146c.226.229.468.404.681.5.106.047.21.078.303.082a.327.327 0 0 0 .256-.087.338.338 0 0 0 .086-.26.895.895 0 0 0-.082-.308 2.424 2.424 0 0 0-.492-.691l-4.08-4.145z" fill="#443E3E" stroke="#443E3E" stroke-width=".2" stroke-linecap="round" stroke-linejoin="round"/></svg>