<svg width="20" height="21" viewBox="0 0 20 21" fill="none" xmlns="http://www.w3.org/2000/svg">
<path fill-rule="evenodd" clip-rule="evenodd" d="M9.69661 0.56017C9.6261 0.593262 9.53665 0.663982 9.49782 0.717337C9.45899 0.77073 8.8086 2.0696 8.05258 3.60379L6.67794 6.3932L3.55438 6.84682C1.65594 7.12252 0.384068 7.32345 0.311607 7.35907C0.173677 7.427 0.0505914 7.60187 0.0152008 7.78023C-0.0429242 8.07303 -0.0218694 8.09787 1.74774 9.82466C2.66294 10.7177 3.68973 11.7161 4.02954 12.0433L4.64731 12.6382L4.12102 15.7057C3.83153 17.3928 3.59461 18.8418 3.59454 18.9257C3.59403 19.344 4.09063 19.6181 4.49567 19.4232C4.59075 19.3774 5.86071 18.713 7.31778 17.9467C8.86266 17.1343 9.99497 16.5605 10.034 16.5702C10.0709 16.5794 11.2781 17.2062 12.7168 17.963C15.9196 19.6479 15.6375 19.5108 15.8518 19.4878C16.1563 19.4551 16.4071 19.201 16.4065 18.9257C16.4064 18.8418 16.1694 17.3928 15.8799 15.7057L15.3536 12.6382L15.9715 12.0433C16.3114 11.7161 17.3382 10.7177 18.2534 9.82466C20.0231 8.09787 20.0441 8.07303 19.986 7.78023C19.9504 7.60101 19.8273 7.42689 19.6875 7.35807C19.6124 7.32111 18.3827 7.12672 16.4534 6.84689C14.7413 6.59855 13.3279 6.37781 13.3124 6.35632C13.297 6.33486 12.6746 5.07912 11.9291 3.56583C11.1838 2.05253 10.5419 0.770433 10.5028 0.716705C10.354 0.51202 9.96165 0.435835 9.69661 0.56017Z" fill="#FCCD05"/>
</svg>
